{
  "version": "1.1.6",
  "modules": [
    {
      "id": 1,
      "plugin": "Core",
      "version": "1.1.6",
      "model": "AudioInterface",
      "params": [],
      "leftModuleId": 57,
      "rightModuleId": 78,
      "data": {
        "audio": {
          "driver": 5,
          "deviceName": "Apple Inc.: Built-in Output",
          "offset": 0,
          "maxChannels": 8,
          "sampleRate": 48000,
          "blockSize": 256
        }
      },
      "pos": [
        64,
        0
      ]
    },
    {
      "id": 2,
      "plugin": "Fundamental",
      "version": "1.4.0",
      "model": "VCMixer",
      "params": [
        {
          "id": 0,
          "value": 0.960000277
        },
        {
          "id": 1,
          "value": 0.564271331
        },
        {
          "id": 2,
          "value": 0.670337021
        },
        {
          "id": 3,
          "value": 0.0
        },
        {
          "id": 4,
          "value": 1.41421354
        }
      ],
      "leftModuleId": 53,
      "rightModuleId": 35,
      "pos": [
        34,
        0
      ]
    },
    {
      "id": 17,
      "plugin": "VCV-Prototype",
      "version": "1.2.0",
      "model": "Prototype",
      "params": [
        {
          "id": 0,
          "value": 0.484499753
        },
        {
          "id": 1,
          "value": 0.500999331
        },
        {
          "id": 2,
          "value": 0.381000012
        },
        {
          "id": 3,
          "value": 0.397500247
        },
        {
          "id": 4,
          "value": 0.32550016
        },
        {
          "id": 5,
          "value": 0.365999967
        },
        {
          "id": 6,
          "value": 0.0
        },
        {
          "id": 7,
          "value": 0.0
        },
        {
          "id": 8,
          "value": 0.0
        },
        {
          "id": 9,
          "value": 0.0
        },
        {
          "id": 10,
          "value": 0.0
        },
        {
          "id": 11,
          "value": 0.0
        }
      ],
      "leftModuleId": 81,
      "rightModuleId": 38,
      "data": {
        "path": "F:\\Dropbox\\Grad School\\YorkU\\VSL\\gitshow3\\module.js",
        "script": "// module3.js is a gate sequencer, which takes as its only input a signal. It compares the input \tsignal amplitude against 6 logical conditions, and sends a gate out of one of the 6 outputs.\n\n// Inputs: IN1\n// Outputs: OUT1, OUT2, OUT3, OUT4, OUT5, OUT6\n\n\nconfig.frameDivider = 1\nconfig.bufferSize = 16\n\nvar phase = 0\n\nfunction step(step){\n\tdisplay('output: ' + step)\n}\n\nfunction process(block) {\n\t// Set all samples in output buffer\n\tfor (var i = 0; i < block.bufferSize; i++) {\n\t\t// IN1: signal input value ranges 0-10, and is thus tested against the switch case below\n\t\tlet switcher = Math.floor(block.inputs[0][i])\n\t\tswitch (switcher){\n\t\t\t// output 0\n\t\t\tcase 0:\n\t\t\t\t\tstep(0)\n\t\t\t\t\tblock.outputs[0][i] = 20\n\t\t\t\t\tblock.outputs[1][i] = 10\n\t\t\t\t\tblock.outputs[2][i] = 0\n\t\t\t\t\tblock.outputs[3][i] = 1\n\t\t\t\t\tblock.outputs[4][i] = 10\n\t\t\t\t\tblock.outputs[5][i] = 0\n\t\t\tbreak;\n\t\t\t// output 1\n\t\t\tcase 1:\n\t\t\tcase 2:\n\t\t\t\t\tstep(1)\n\t\t\t\t\tblock.outputs[0][i] = 0\n\t\t\t\t\tblock.outputs[1][i] = 10\n\t\t\t\t\tblock.outputs[2][i] = 0\n\t\t\t\t\tblock.outputs[3][i] = 0\n\t\t\t\t\tblock.outputs[4][i] = 0\n\t\t\t\t\tblock.outputs[5][i] = 0\n\t\t\tbreak;\n\n\t\t\t// output 2\n\t\t\tcase 3:\n\t\t\t\tstep(3)\n\t\t\t\tblock.outputs[0][i] = 10\n\t\t\t\tblock.outputs[5][i] = 10\n\t\t\tcase 4:\n\t\t\t\t\tstep(2)\n\t\t\t\t\tblock.outputs[0][i] = 0\n\t\t\t\t\tblock.outputs[1][i] = 0\n\t\t\t\t\tblock.outputs[2][i] = 10\n\t\t\t\t\tblock.outputs[3][i] = 0\n\t\t\t\t\tblock.outputs[4][i] = 0\n\t\t\t\t\tblock.outputs[5][i] = 0\n\t\t\tbreak;\n\t\t\t// output 3\n\t\t\tcase 5:\n\t\t\tcase 6:\n\t\t\t\tstep(3)\n\t\t\t\tblock.outputs[0][i] = 0\n\t\t\t\tblock.outputs[1][i] = 0\n\t\t\t\tblock.outputs[2][i] = 0\n\t\t\t\tblock.outputs[3][i] = 10\n\t\t\t\tblock.outputs[4][i] = 0\n\t\t\t\tblock.outputs[5][i] = 0\n\t\t\tbreak;\n\t\t\t// output 4\n\t\t\tcase 7:\n\t\t\tcase 8:\n\t\t\t\t\tstep(4)\n\t\t\t\t\tblock.outputs[0][i] = 0\n\t\t\t\t\tblock.outputs[1][i] = 10\n\t\t\t\t\tblock.outputs[2][i] = 0\n\t\t\t\t\tblock.outputs[3][i] = 0\n\t\t\t\t\tblock.outputs[4][i] = 10\n\t\t\t\t\tblock.outputs[5][i] = 10\n\t\t\tbreak;\n\t\t\t// output 5\n\t\t\tcase 9:\n\t\t\t\t\tstep(5)\n\t\t\t\t\tblock.outputs[0][i] = 0\n\t\t\t\t\tblock.outputs[1][i] = 0\n\t\t\t\t\tblock.outputs[2][i] = 10\n\t\t\t\t\tblock.outputs[3][i] = 0\n\t\t\t\t\tblock.outputs[4][i] = 0\n\t\t\t\t\tblock.outputs[5][i] = 10\n\t\t\tbreak;\n\t\t}\n\t}\n\n\n}\n"
      },
      "pos": [
        19,
        1
      ]
    },
    {
      "id": 28,
      "plugin": "Fundamental",
      "version": "1.4.0",
      "model": "LFO",
      "params": [
        {
          "id": 0,
          "value": 1.0
        },
        {
          "id": 1,
          "value": 0.0
        },
        {
          "id": 2,
          "value": -7.4600029
        },
        {
          "id": 3,
          "value": 0.0
        },
        {
          "id": 4,
          "value": 0.0
        },
        {
          "id": 5,
          "value": 0.5
        },
        {
          "id": 6,
          "value": 0.0
        }
      ],
      "rightModuleId": 39,
      "pos": [
        0,
        0
      ]
    },
    {
      "id": 35,
      "plugin": "Fundamental",
      "version": "1.4.0",
      "model": "VCMixer",
      "params": [
        {
          "id": 0,
          "value": 0.891000748
        },
        {
          "id": 1,
          "value": 0.369109809
        },
        {
          "id": 2,
          "value": 1.19218385
        },
        {
          "id": 3,
          "value": 0.0
        },
        {
          "id": 4,
          "value": 1.41421354
        }
      ],
      "leftModuleId": 2,
      "rightModuleId": 57,
      "pos": [
        44,
        0
      ]
    },
    {
      "id": 39,
      "plugin": "Fundamental",
      "version": "1.4.0",
      "model": "LFO2",
      "params": [
        {
          "id": 0,
          "value": 0.0
        },
        {
          "id": 1,
          "value": 0.0
        },
        {
          "id": 2,
          "value": 1.15299988
        },
        {
          "id": 3,
          "value": 1.59749937
        },
        {
          "id": 4,
          "value": 0.579999804
        }
      ],
      "leftModuleId": 28,
      "rightModuleId": 53,
      "pos": [
        10,
        0
      ]
    },
    {
      "id": 38,
      "plugin": "Befaco",
      "version": "1.0.0",
      "model": "Rampage",
      "params": [
        {
          "id": 0,
          "value": 0.0
        },
        {
          "id": 1,
          "value": 2.0
        },
        {
          "id": 2,
          "value": 0.0969999954
        },
        {
          "id": 3,
          "value": -0.779000342
        },
        {
          "id": 4,
          "value": 0.0
        },
        {
          "id": 5,
          "value": 0.0
        },
        {
          "id": 6,
          "value": 0.288000166
        },
        {
          "id": 7,
          "value": 0.537999988
        },
        {
          "id": 8,
          "value": 0.0
        },
        {
          "id": 9,
          "value": 0.0880000889
        },
        {
          "id": 10,
          "value": 1.0
        },
        {
          "id": 11,
          "value": 1.0
        },
        {
          "id": 12,
          "value": 0.494499832
        }
      ],
      "leftModuleId": 17,
      "rightModuleId": 47,
      "pos": [
        34,
        1
      ]
    },
    {
      "id": 47,
      "plugin": "Fundamental",
      "version": "1.4.0",
      "model": "Scope",
      "params": [
        {
          "id": 0,
          "value": -2.0
        },
        {
          "id": 1,
          "value": 0.0
        },
        {
          "id": 2,
          "value": -1.0
        },
        {
          "id": 3,
          "value": 0.0
        },
        {
          "id": 4,
          "value": 6.0
        },
        {
          "id": 5,
          "value": 0.0
        },
        {
          "id": 6,
          "value": 0.0
        },
        {
          "id": 7,
          "value": 0.0
        }
      ],
      "leftModuleId": 38,
      "rightModuleId": 80,
      "data": {
        "lissajous": 0,
        "external": 0
      },
      "pos": [
        52,
        1
      ]
    },
    {
      "id": 53,
      "plugin": "StellareModular",
      "version": "1.0.0",
      "model": "TuringMachine",
      "params": [
        {
          "id": 0,
          "value": 0.499999881
        },
        {
          "id": 1,
          "value": 0.594500482
        },
        {
          "id": 2,
          "value": 0.822499752
        },
        {
          "id": 3,
          "value": 0.735499859
        },
        {
          "id": 4,
          "value": 0.667500198
        },
        {
          "id": 5,
          "value": 1.0
        },
        {
          "id": 6,
          "value": 4.0
        },
        {
          "id": 7,
          "value": 0.5
        },
        {
          "id": 8,
          "value": 0.0
        },
        {
          "id": 9,
          "value": 0.0
        },
        {
          "id": 10,
          "value": 0.0
        },
        {
          "id": 11,
          "value": 0.0
        },
        {
          "id": 12,
          "value": 0.0
        }
      ],
      "leftModuleId": 39,
      "rightModuleId": 2,
      "data": {
        "pulses_mode": 0
      },
      "pos": [
        16,
        0
      ]
    },
    {
      "id": 57,
      "plugin": "Fundamental",
      "version": "1.4.0",
      "model": "VCMixer",
      "params": [
        {
          "id": 0,
          "value": 0.0
        },
        {
          "id": 1,
          "value": 1.0
        },
        {
          "id": 2,
          "value": 1.0
        },
        {
          "id": 3,
          "value": 1.0
        },
        {
          "id": 4,
          "value": 1.0
        }
      ],
      "leftModuleId": 35,
      "rightModuleId": 1,
      "pos": [
        54,
        0
      ]
    },
    {
      "id": 78,
      "plugin": "VCV-Recorder",
      "version": "1.0.1",
      "model": "Recorder",
      "params": [
        {
          "id": 0,
          "value": 1.50699985
        },
        {
          "id": 1,
          "value": 0.0
        }
      ],
      "leftModuleId": 1,
      "data": {
        "format": "wav",
        "path": "/Users/magfoto/Library/Mobile Documents/com~apple~CloudDocs/York U - PhD Study/_courses/DIGM 6020 - Vertical Studio Lab II/gitshow3/recording.wav",
        "incrementPath": false,
        "sampleRate": 44100,
        "depth": 16,
        "bitRate": 320000
      },
      "pos": [
        74,
        0
      ]
    },
    {
      "id": 80,
      "plugin": "Befaco",
      "version": "1.0.0",
      "model": "EvenVCO",
      "params": [
        {
          "id": 0,
          "value": -5.0
        },
        {
          "id": 1,
          "value": -0.524994373
        },
        {
          "id": 2,
          "value": -0.0520001352
        }
      ],
      "leftModuleId": 47,
      "pos": [
        65,
        1
      ]
    },
    {
      "id": 81,
      "plugin": "Core",
      "version": "1.1.6",
      "model": "Notes",
      "params": [],
      "leftModuleId": 82,
      "rightModuleId": 17,
      "text": "Turn FREQ dial up on the LFO-1 to 11 o'clock, and start fiddling with the OCTAVE DIAL on the EvenVCO.",
      "pos": [
        3,
        1
      ]
    },
    {
      "id": 82,
      "plugin": "Fundamental",
      "version": "1.4.0",
      "model": "Noise",
      "params": [],
      "rightModuleId": 81,
      "pos": [
        0,
        1
      ]
    }
  ],
  "cables": [
    {
      "id": 367,
      "outputModuleId": 35,
      "outputId": 0,
      "inputModuleId": 1,
      "inputId": 1,
      "color": "#c91847"
    },
    {
      "id": 349,
      "outputModuleId": 2,
      "outputId": 0,
      "inputModuleId": 1,
      "inputId": 0,
      "color": "#0986ad"
    },
    {
      "id": 640,
      "outputModuleId": 2,
      "outputId": 0,
      "inputModuleId": 78,
      "inputId": 2,
      "color": "#0c8e15"
    },
    {
      "id": 641,
      "outputModuleId": 35,
      "outputId": 0,
      "inputModuleId": 78,
      "inputId": 3,
      "color": "#c91847"
    },
    {
      "id": 634,
      "outputModuleId": 28,
      "outputId": 0,
      "inputModuleId": 17,
      "inputId": 0,
      "color": "#0c8e15"
    },
    {
      "id": 674,
      "outputModuleId": 53,
      "outputId": 0,
      "inputModuleId": 38,
      "inputId": 2,
      "color": "#0c8e15"
    },
    {
      "id": 677,
      "outputModuleId": 53,
      "outputId": 12,
      "inputModuleId": 38,
      "inputId": 1,
      "color": "#c91847"
    },
    {
      "id": 683,
      "outputModuleId": 53,
      "outputId": 1,
      "inputModuleId": 39,
      "inputId": 2,
      "color": "#c91847"
    },
    {
      "id": 664,
      "outputModuleId": 39,
      "outputId": 0,
      "inputModuleId": 17,
      "inputId": 1,
      "color": "#0986ad"
    },
    {
      "id": 686,
      "outputModuleId": 17,
      "outputId": 1,
      "inputModuleId": 2,
      "inputId": 1,
      "color": "#c91847"
    },
    {
      "id": 687,
      "outputModuleId": 28,
      "outputId": 1,
      "inputModuleId": 17,
      "inputId": 2,
      "color": "#c9b70e"
    },
    {
      "id": 689,
      "outputModuleId": 17,
      "outputId": 0,
      "inputModuleId": 35,
      "inputId": 1,
      "color": "#c91847"
    },
    {
      "id": 690,
      "outputModuleId": 53,
      "outputId": 3,
      "inputModuleId": 17,
      "inputId": 3,
      "color": "#0986ad"
    },
    {
      "id": 691,
      "outputModuleId": 17,
      "outputId": 3,
      "inputModuleId": 35,
      "inputId": 2,
      "color": "#c9b70e"
    },
    {
      "id": 688,
      "outputModuleId": 17,
      "outputId": 2,
      "inputModuleId": 2,
      "inputId": 2,
      "color": "#0c8e15"
    },
    {
      "id": 694,
      "outputModuleId": 80,
      "outputId": 0,
      "inputModuleId": 2,
      "inputId": 5,
      "color": "#0986ad"
    },
    {
      "id": 693,
      "outputModuleId": 80,
      "outputId": 1,
      "inputModuleId": 35,
      "inputId": 6,
      "color": "#c91847"
    },
    {
      "id": 696,
      "outputModuleId": 53,
      "outputId": 2,
      "inputModuleId": 38,
      "inputId": 0,
      "color": "#0c8e15"
    },
    {
      "id": 700,
      "outputModuleId": 38,
      "outputId": 6,
      "inputModuleId": 80,
      "inputId": 2,
      "color": "#0c8e15"
    },
    {
      "id": 708,
      "outputModuleId": 17,
      "outputId": 4,
      "inputModuleId": 35,
      "inputId": 5,
      "color": "#0986ad"
    },
    {
      "id": 709,
      "outputModuleId": 17,
      "outputId": 4,
      "inputModuleId": 2,
      "inputId": 6,
      "color": "#c9b70e"
    },
    {
      "id": 712,
      "outputModuleId": 53,
      "outputId": 4,
      "inputModuleId": 28,
      "inputId": 2,
      "color": "#0986ad"
    },
    {
      "id": 698,
      "outputModuleId": 35,
      "outputId": 0,
      "inputModuleId": 47,
      "inputId": 0,
      "color": "#0986ad"
    },
    {
      "id": 710,
      "outputModuleId": 28,
      "outputId": 3,
      "inputModuleId": 53,
      "inputId": 0,
      "color": "#0c8e15"
    },
    {
      "id": 713,
      "outputModuleId": 53,
      "outputId": 13,
      "inputModuleId": 17,
      "inputId": 5,
      "color": "#0c8e15"
    },
    {
      "id": 718,
      "outputModuleId": 82,
      "outputId": 0,
      "inputModuleId": 17,
      "inputId": 4,
      "color": "#c91847"
    },
    {
      "id": 720,
      "outputModuleId": 82,
      "outputId": 1,
      "inputModuleId": 38,
      "inputId": 10,
      "color": "#c9b70e"
    },
    {
      "id": 721,
      "outputModuleId": 82,
      "outputId": 3,
      "inputModuleId": 38,
      "inputId": 11,
      "color": "#0c8e15"
    },
    {
      "id": 722,
      "outputModuleId": 17,
      "outputId": 5,
      "inputModuleId": 38,
      "inputId": 4,
      "color": "#c91847"
    }
  ]
}