{
  "version": "1.1.5",
  "modules": [
    {
      "id": 1,
      "plugin": "Core",
      "version": "1.1.5",
      "model": "AudioInterface",
      "params": [],
      "leftModuleId": 35,
      "rightModuleId": 8,
      "data": {
        "audio": {
          "driver": 8,
          "deviceName": "Speakers (USB Audio CODEC )",
          "offset": 0,
          "maxChannels": 8,
          "sampleRate": 44100,
          "blockSize": 256
        }
      },
      "pos": [
        92,
        1
      ]
    },
    {
      "id": 2,
      "plugin": "Fundamental",
      "version": "1.4.0",
      "model": "VCMixer",
      "params": [
        {
          "id": 0,
          "value": 0.960000277
        },
        {
          "id": 1,
          "value": 1.13278508
        },
        {
          "id": 2,
          "value": 0.0
        },
        {
          "id": 3,
          "value": 0.0
        },
        {
          "id": 4,
          "value": 0.963080287
        }
      ],
      "leftModuleId": 44,
      "rightModuleId": 35,
      "pos": [
        72,
        1
      ]
    },
    {
      "id": 8,
      "plugin": "Core",
      "version": "1.1.5",
      "model": "Notes",
      "params": [],
      "leftModuleId": 1,
      "rightModuleId": 23,
      "text": "patch instructions:\n\n1. Choose an audio driver and device in the AUDIO-8 module.\n\n2. Drag knobs up/down. Hold Ctrl (Cmd on Mac) while dragging to fine-tune. Right-click knobs to edit, or double-click to initialize.\n\n3. Drag ports to create and move 3ables. Stack multiple cables on outputs by holding Ctrl (Cmd on Mac) and dragging from an output.\n\n4. Right-click on an empty rack space to add new modules.",
      "pos": [
        102,
        1
      ]
    },
    {
      "id": 17,
      "plugin": "VCV-Prototype",
      "version": "1.2.0",
      "model": "Prototype",
      "params": [
        {
          "id": 0,
          "value": 0.513000011
        },
        {
          "id": 1,
          "value": 0.00749999937
        },
        {
          "id": 2,
          "value": 0.0
        },
        {
          "id": 3,
          "value": 0.0
        },
        {
          "id": 4,
          "value": 0.0
        },
        {
          "id": 5,
          "value": 0.0
        },
        {
          "id": 6,
          "value": 0.0
        },
        {
          "id": 7,
          "value": 0.0
        },
        {
          "id": 8,
          "value": 0.0
        },
        {
          "id": 9,
          "value": 0.0
        },
        {
          "id": 10,
          "value": 0.0
        },
        {
          "id": 11,
          "value": 0.0
        }
      ],
      "leftModuleId": 39,
      "rightModuleId": 53,
      "data": {
        "path": "F:\\Dropbox\\Grad School\\YorkU\\VSL\\gitshow3\\module.js",
        "script": "// module3.js is a gate sequencer, which takes as its only input a signal. It compares the input \tsignal amplitude against 6 logical conditions, and sends a gate out of one of the 6 outputs.\n\n// Inputs: IN1\n// Outputs: OUT1, OUT2, OUT3, OUT4, OUT5, OUT6\n\n\nconfig.frameDivider = 1\nconfig.bufferSize = 16\n\nvar phase = 0\n\nfunction step(step){\n\tdisplay('output: ' + step)\n}\n\nfunction process(block) {\n\t// Set all samples in output buffer\n\tfor (var i = 0; i < block.bufferSize; i++) {\n\t\t// IN1: signal input value ranges 0-10, and is thus tested against the switch case below\n\t\tlet switcher = Math.floor(block.inputs[0][i])\n\t\tswitch (switcher){\n\t\t\t// output 0\n\t\t\tcase 0:\n\t\t\t\t\tstep(0)\n\t\t\t\t\tblock.outputs[0][i] = 20\n\t\t\t\t\tblock.outputs[1][i] = 10\n\t\t\t\t\tblock.outputs[2][i] = 0\n\t\t\t\t\tblock.outputs[3][i] = 1\n\t\t\t\t\tblock.outputs[4][i] = 10\n\t\t\t\t\tblock.outputs[5][i] = 0\n\t\t\tbreak;\n\t\t\t// output 1\n\t\t\tcase 1:\n\t\t\tcase 2:\n\t\t\t\t\tstep(1)\n\t\t\t\t\tblock.outputs[0][i] = 0\n\t\t\t\t\tblock.outputs[1][i] = 10\n\t\t\t\t\tblock.outputs[2][i] = 0\n\t\t\t\t\tblock.outputs[3][i] = 0\n\t\t\t\t\tblock.outputs[4][i] = 0\n\t\t\t\t\tblock.outputs[5][i] = 0\n\t\t\tbreak;\n\n\t\t\t// output 2\n\t\t\tcase 3:\n\t\t\t\tstep(3)\n\t\t\t\tblock.outputs[0][i] = 10\n\t\t\t\tblock.outputs[5][i] = 10\n\t\t\tcase 4:\n\t\t\t\t\tstep(2)\n\t\t\t\t\tblock.outputs[0][i] = 0\n\t\t\t\t\tblock.outputs[1][i] = 0\n\t\t\t\t\tblock.outputs[2][i] = 10\n\t\t\t\t\tblock.outputs[3][i] = 0\n\t\t\t\t\tblock.outputs[4][i] = 0\n\t\t\t\t\tblock.outputs[5][i] = 0\n\t\t\tbreak;\n\t\t\t// output 3\n\t\t\tcase 5:\n\t\t\tcase 6:\n\t\t\t\tstep(3)\n\t\t\t\tblock.outputs[0][i] = 0\n\t\t\t\tblock.outputs[1][i] = 0\n\t\t\t\tblock.outputs[2][i] = 0\n\t\t\t\tblock.outputs[3][i] = 10\n\t\t\t\tblock.outputs[4][i] = 0\n\t\t\t\tblock.outputs[5][i] = 0\n\t\t\tbreak;\n\t\t\t// output 4\n\t\t\tcase 7:\n\t\t\tcase 8:\n\t\t\t\t\tstep(4)\n\t\t\t\t\tblock.outputs[0][i] = 0\n\t\t\t\t\tblock.outputs[1][i] = 10\n\t\t\t\t\tblock.outputs[2][i] = 0\n\t\t\t\t\tblock.outputs[3][i] = 0\n\t\t\t\t\tblock.outputs[4][i] = 10\n\t\t\t\t\tblock.outputs[5][i] = 10\n\t\t\tbreak;\n\t\t\t// output 5\n\t\t\tcase 9:\n\t\t\t\t\tstep(5)\n\t\t\t\t\tblock.outputs[0][i] = 0\n\t\t\t\t\tblock.outputs[1][i] = rand(11);\n\t\t\t\t\tblock.outputs[2][i] = 10\n\t\t\t\t\tblock.outputs[3][i] = 0\n\t\t\t\t\tblock.outputs[4][i] = 0\n\t\t\t\t\tblock.outputs[5][i] = 10\n\t\t\tbreak;\n\t\t}\n\t}\n\n\n}\n\nfunction rand(n){\n\treturn Math.floor(Math.random(n));\n}\n"
      },
      "pos": [
        16,
        1
      ]
    },
    {
      "id": 23,
      "plugin": "Core",
      "version": "1.1.5",
      "model": "Notes",
      "params": [],
      "leftModuleId": 8,
      "text": "recording! this little module simplifies things so we don't have to use jack+daw\n\nremember to save the recording to the git repo, but don't let it be larger than 20MB~",
      "pos": [
        118,
        1
      ]
    },
    {
      "id": 28,
      "plugin": "Fundamental",
      "version": "1.4.0",
      "model": "LFO",
      "params": [
        {
          "id": 0,
          "value": 1.0
        },
        {
          "id": 1,
          "value": 0.0
        },
        {
          "id": 2,
          "value": -0.547979772
        },
        {
          "id": 3,
          "value": 0.319500238
        },
        {
          "id": 4,
          "value": 0.546000242
        },
        {
          "id": 5,
          "value": 0.352509916
        },
        {
          "id": 6,
          "value": 0.635999978
        }
      ],
      "rightModuleId": 39,
      "pos": [
        0,
        1
      ]
    },
    {
      "id": 35,
      "plugin": "Fundamental",
      "version": "1.4.0",
      "model": "VCMixer",
      "params": [
        {
          "id": 0,
          "value": 0.891000748
        },
        {
          "id": 1,
          "value": 1.17096889
        },
        {
          "id": 2,
          "value": 0.0
        },
        {
          "id": 3,
          "value": 0.0
        },
        {
          "id": 4,
          "value": 0.94327879
        }
      ],
      "leftModuleId": 2,
      "rightModuleId": 1,
      "pos": [
        82,
        1
      ]
    },
    {
      "id": 36,
      "plugin": "AudibleInstruments",
      "version": "1.0.0",
      "model": "Rings",
      "params": [
        {
          "id": 0,
          "value": 0.0
        },
        {
          "id": 1,
          "value": 0.0
        },
        {
          "id": 2,
          "value": 30.0
        },
        {
          "id": 3,
          "value": 0.830500066
        },
        {
          "id": 4,
          "value": 0.805000186
        },
        {
          "id": 5,
          "value": 0.455499709
        },
        {
          "id": 6,
          "value": 0.774500072
        },
        {
          "id": 7,
          "value": 0.00299995486
        },
        {
          "id": 8,
          "value": 0.233999997
        },
        {
          "id": 9,
          "value": 0.657000244
        },
        {
          "id": 10,
          "value": 0.742000461
        },
        {
          "id": 11,
          "value": 0.279999912
        }
      ],
      "leftModuleId": 50,
      "rightModuleId": 66,
      "data": {
        "polyphony": 2,
        "model": 0,
        "easterEgg": false
      },
      "pos": [
        36,
        2
      ]
    },
    {
      "id": 37,
      "plugin": "AudibleInstruments",
      "version": "1.0.0",
      "model": "Rings",
      "params": [
        {
          "id": 0,
          "value": 0.0
        },
        {
          "id": 1,
          "value": 0.0
        },
        {
          "id": 2,
          "value": 5.51995516
        },
        {
          "id": 3,
          "value": 0.48450014
        },
        {
          "id": 4,
          "value": 0.377000153
        },
        {
          "id": 5,
          "value": 0.775000393
        },
        {
          "id": 6,
          "value": 0.948000014
        },
        {
          "id": 7,
          "value": 0.137999982
        },
        {
          "id": 8,
          "value": -0.239999622
        },
        {
          "id": 9,
          "value": -0.360000134
        },
        {
          "id": 10,
          "value": 0.36800018
        },
        {
          "id": 11,
          "value": 0.441000074
        }
      ],
      "leftModuleId": 67,
      "rightModuleId": 64,
      "data": {
        "polyphony": 2,
        "model": 0,
        "easterEgg": false
      },
      "pos": [
        66,
        2
      ]
    },
    {
      "id": 39,
      "plugin": "Fundamental",
      "version": "1.4.0",
      "model": "LFO2",
      "params": [
        {
          "id": 0,
          "value": 0.0
        },
        {
          "id": 1,
          "value": 0.0
        },
        {
          "id": 2,
          "value": 2.93101764
        },
        {
          "id": 3,
          "value": 0.581999838
        },
        {
          "id": 4,
          "value": 0.398000658
        }
      ],
      "leftModuleId": 28,
      "rightModuleId": 17,
      "pos": [
        10,
        1
      ]
    },
    {
      "id": 45,
      "plugin": "DrumKit",
      "version": "1.1.3",
      "model": "CR78",
      "params": [
        {
          "id": 0,
          "value": 2.0
        },
        {
          "id": 1,
          "value": 1.0
        },
        {
          "id": 2,
          "value": 0.0
        },
        {
          "id": 3,
          "value": 0.0
        },
        {
          "id": 4,
          "value": 0.0
        },
        {
          "id": 5,
          "value": 0.0
        },
        {
          "id": 6,
          "value": 0.0
        },
        {
          "id": 7,
          "value": 0.0
        },
        {
          "id": 8,
          "value": 0.0
        },
        {
          "id": 9,
          "value": 0.0
        },
        {
          "id": 10,
          "value": 0.0
        },
        {
          "id": 11,
          "value": 0.0
        },
        {
          "id": 12,
          "value": 0.0
        },
        {
          "id": 13,
          "value": 0.0
        },
        {
          "id": 14,
          "value": 0.0
        },
        {
          "id": 15,
          "value": 0.0
        },
        {
          "id": 16,
          "value": 1.48799956
        },
        {
          "id": 17,
          "value": 1.4600004
        },
        {
          "id": 18,
          "value": 0.0
        },
        {
          "id": 19,
          "value": 0.0
        },
        {
          "id": 20,
          "value": 0.0
        },
        {
          "id": 21,
          "value": 0.0
        },
        {
          "id": 22,
          "value": 0.0
        },
        {
          "id": 23,
          "value": 0.0
        },
        {
          "id": 24,
          "value": 0.0
        },
        {
          "id": 25,
          "value": 0.0
        },
        {
          "id": 26,
          "value": 0.0
        },
        {
          "id": 27,
          "value": 0.0
        },
        {
          "id": 28,
          "value": 0.0
        },
        {
          "id": 29,
          "value": 0.0
        },
        {
          "id": 30,
          "value": 0.0
        },
        {
          "id": 31,
          "value": 0.0
        }
      ],
      "rightModuleId": 57,
      "pos": [
        107,
        2
      ]
    },
    {
      "id": 44,
      "plugin": "VCV-Recorder",
      "version": "1.0.1",
      "model": "Recorder",
      "params": [
        {
          "id": 0,
          "value": 0.273000777
        },
        {
          "id": 1,
          "value": 0.0
        }
      ],
      "leftModuleId": 38,
      "rightModuleId": 2,
      "data": {
        "format": "wav",
        "path": "/Users/audiobeing/gitshow3/recording3.wav",
        "incrementPath": true,
        "sampleRate": 44100,
        "depth": 16,
        "bitRate": 320000
      },
      "pos": [
        67,
        1
      ]
    },
    {
      "id": 38,
      "plugin": "Befaco",
      "version": "1.0.0",
      "model": "Rampage",
      "params": [
        {
          "id": 0,
          "value": 2.0
        },
        {
          "id": 1,
          "value": 1.0
        },
        {
          "id": 2,
          "value": -0.277999967
        },
        {
          "id": 3,
          "value": -0.779000342
        },
        {
          "id": 4,
          "value": 0.0
        },
        {
          "id": 5,
          "value": 0.0
        },
        {
          "id": 6,
          "value": 0.288000166
        },
        {
          "id": 7,
          "value": 0.537999988
        },
        {
          "id": 8,
          "value": 0.0
        },
        {
          "id": 9,
          "value": 0.0880000889
        },
        {
          "id": 10,
          "value": 0.0
        },
        {
          "id": 11,
          "value": 1.0
        },
        {
          "id": 12,
          "value": 0.494499832
        }
      ],
      "leftModuleId": 53,
      "rightModuleId": 44,
      "pos": [
        49,
        1
      ]
    },
    {
      "id": 47,
      "plugin": "Fundamental",
      "version": "1.4.0",
      "model": "Scope",
      "params": [
        {
          "id": 0,
          "value": -2.0
        },
        {
          "id": 1,
          "value": 0.0
        },
        {
          "id": 2,
          "value": -1.0
        },
        {
          "id": 3,
          "value": 0.0
        },
        {
          "id": 4,
          "value": 6.0
        },
        {
          "id": 5,
          "value": 0.0
        },
        {
          "id": 6,
          "value": 0.0
        },
        {
          "id": 7,
          "value": 0.0
        }
      ],
      "leftModuleId": 48,
      "data": {
        "lissajous": 0,
        "external": 0
      },
      "pos": [
        45,
        0
      ]
    },
    {
      "id": 48,
      "plugin": "JW-Modules",
      "version": "1.0.9",
      "model": "MinMax",
      "params": [
        {
          "id": 0,
          "value": -6.61499977
        },
        {
          "id": 1,
          "value": 0.0
        }
      ],
      "rightModuleId": 47,
      "data": {
        "lissajous": 0
      },
      "pos": [
        39,
        0
      ]
    },
    {
      "id": 50,
      "plugin": "Fundamental",
      "version": "1.4.0",
      "model": "8vert",
      "params": [
        {
          "id": 0,
          "value": 1.0
        },
        {
          "id": 1,
          "value": 0.393999845
        },
        {
          "id": 2,
          "value": 1.0
        },
        {
          "id": 3,
          "value": 0.318999827
        },
        {
          "id": 4,
          "value": 1.0
        },
        {
          "id": 5,
          "value": 0.267999977
        },
        {
          "id": 6,
          "value": 0.709999979
        },
        {
          "id": 7,
          "value": 1.0
        }
      ],
      "leftModuleId": 54,
      "rightModuleId": 36,
      "pos": [
        28,
        2
      ]
    },
    {
      "id": 51,
      "plugin": "Fundamental",
      "version": "1.4.0",
      "model": "Noise",
      "params": [],
      "rightModuleId": 54,
      "pos": [
        21,
        2
      ]
    },
    {
      "id": 53,
      "plugin": "StellareModular",
      "version": "1.0.0",
      "model": "TuringMachine",
      "params": [
        {
          "id": 0,
          "value": 0.499999881
        },
        {
          "id": 1,
          "value": 0.39500013
        },
        {
          "id": 2,
          "value": 0.636499703
        },
        {
          "id": 3,
          "value": 0.504500091
        },
        {
          "id": 4,
          "value": 0.465000331
        },
        {
          "id": 5,
          "value": -0.73900032
        },
        {
          "id": 6,
          "value": 5.0
        },
        {
          "id": 7,
          "value": 0.5
        },
        {
          "id": 8,
          "value": 0.0
        },
        {
          "id": 9,
          "value": 0.0
        },
        {
          "id": 10,
          "value": 0.0
        },
        {
          "id": 11,
          "value": 0.0
        },
        {
          "id": 12,
          "value": 0.0
        }
      ],
      "leftModuleId": 17,
      "rightModuleId": 38,
      "data": {
        "pulses_mode": 0
      },
      "pos": [
        31,
        1
      ]
    },
    {
      "id": 54,
      "plugin": "AudibleInstruments",
      "version": "1.0.0",
      "model": "Kinks",
      "params": [],
      "leftModuleId": 51,
      "rightModuleId": 50,
      "pos": [
        24,
        2
      ]
    },
    {
      "id": 57,
      "plugin": "Fundamental",
      "version": "1.4.0",
      "model": "VCMixer",
      "params": [
        {
          "id": 0,
          "value": 0.0
        },
        {
          "id": 1,
          "value": 1.0
        },
        {
          "id": 2,
          "value": 1.0
        },
        {
          "id": 3,
          "value": 1.0
        },
        {
          "id": 4,
          "value": 1.0
        }
      ],
      "leftModuleId": 45,
      "rightModuleId": 58,
      "pos": [
        113,
        2
      ]
    },
    {
      "id": 58,
      "plugin": "Fundamental",
      "version": "1.4.0",
      "model": "Delay",
      "params": [
        {
          "id": 0,
          "value": 0.521000385
        },
        {
          "id": 1,
          "value": 0.438500136
        },
        {
          "id": 2,
          "value": 0.126000017
        },
        {
          "id": 3,
          "value": 0.502000153
        }
      ],
      "leftModuleId": 57,
      "pos": [
        123,
        2
      ]
    },
    {
      "id": 59,
      "plugin": "Fundamental",
      "version": "1.4.0",
      "model": "LFO",
      "params": [
        {
          "id": 0,
          "value": 1.0
        },
        {
          "id": 1,
          "value": 1.0
        },
        {
          "id": 2,
          "value": -2.86099505
        },
        {
          "id": 3,
          "value": 0.0
        },
        {
          "id": 4,
          "value": 0.0
        },
        {
          "id": 5,
          "value": 0.00999999978
        },
        {
          "id": 6,
          "value": 0.0
        }
      ],
      "rightModuleId": 71,
      "pos": [
        23,
        3
      ]
    },
    {
      "id": 64,
      "plugin": "Fundamental",
      "version": "1.4.0",
      "model": "VCF",
      "params": [
        {
          "id": 0,
          "value": 0.730000019
        },
        {
          "id": 1,
          "value": 0.5
        },
        {
          "id": 2,
          "value": 0.178499997
        },
        {
          "id": 3,
          "value": -0.335999966
        },
        {
          "id": 4,
          "value": 0.157499969
        }
      ],
      "leftModuleId": 37,
      "rightModuleId": 65,
      "pos": [
        80,
        2
      ]
    },
    {
      "id": 65,
      "plugin": "Fundamental",
      "version": "1.4.0",
      "model": "VCF",
      "params": [
        {
          "id": 0,
          "value": 0.734499991
        },
        {
          "id": 1,
          "value": 0.5
        },
        {
          "id": 2,
          "value": 0.151499957
        },
        {
          "id": 3,
          "value": -0.279000014
        },
        {
          "id": 4,
          "value": 0.139500007
        }
      ],
      "leftModuleId": 64,
      "pos": [
        88,
        2
      ]
    },
    {
      "id": 66,
      "plugin": "Fundamental",
      "version": "1.4.0",
      "model": "Delay",
      "params": [
        {
          "id": 0,
          "value": 0.5
        },
        {
          "id": 1,
          "value": 0.495500058
        },
        {
          "id": 2,
          "value": 0.5
        },
        {
          "id": 3,
          "value": 0.5
        }
      ],
      "leftModuleId": 36,
      "rightModuleId": 67,
      "pos": [
        50,
        2
      ]
    },
    {
      "id": 67,
      "plugin": "Fundamental",
      "version": "1.4.0",
      "model": "Delay",
      "params": [
        {
          "id": 0,
          "value": 0.5
        },
        {
          "id": 1,
          "value": 0.5
        },
        {
          "id": 2,
          "value": 0.5
        },
        {
          "id": 3,
          "value": 0.5
        }
      ],
      "leftModuleId": 66,
      "rightModuleId": 37,
      "pos": [
        58,
        2
      ]
    },
    {
      "id": 69,
      "plugin": "Fundamental",
      "version": "1.4.0",
      "model": "VCF",
      "params": [
        {
          "id": 0,
          "value": 0.822998405
        },
        {
          "id": 1,
          "value": 0.5
        },
        {
          "id": 2,
          "value": 0.0
        },
        {
          "id": 3,
          "value": 0.39899981
        },
        {
          "id": 4,
          "value": 0.0
        }
      ],
      "leftModuleId": 70,
      "rightModuleId": 73,
      "pos": [
        59,
        3
      ]
    },
    {
      "id": 70,
      "plugin": "AudibleInstruments",
      "version": "1.0.0",
      "model": "Veils",
      "params": [
        {
          "id": 0,
          "value": 0.248999789
        },
        {
          "id": 1,
          "value": 0.265500158
        },
        {
          "id": 2,
          "value": 1.0
        },
        {
          "id": 3,
          "value": 0.0
        },
        {
          "id": 4,
          "value": 1.0
        },
        {
          "id": 5,
          "value": 1.0
        },
        {
          "id": 6,
          "value": 1.0
        },
        {
          "id": 7,
          "value": 1.0
        }
      ],
      "leftModuleId": 71,
      "rightModuleId": 69,
      "pos": [
        47,
        3
      ]
    },
    {
      "id": 71,
      "plugin": "AudibleInstruments",
      "version": "1.0.0",
      "model": "Stages",
      "params": [
        {
          "id": 0,
          "value": 0.5
        },
        {
          "id": 1,
          "value": 0.5
        },
        {
          "id": 2,
          "value": 0.5
        },
        {
          "id": 3,
          "value": 0.5
        },
        {
          "id": 4,
          "value": 0.5
        },
        {
          "id": 5,
          "value": 0.5
        },
        {
          "id": 6,
          "value": 0.0
        },
        {
          "id": 7,
          "value": 0.0
        },
        {
          "id": 8,
          "value": 0.0
        },
        {
          "id": 9,
          "value": 0.0
        },
        {
          "id": 10,
          "value": 0.0
        },
        {
          "id": 11,
          "value": 0.0
        },
        {
          "id": 12,
          "value": 0.421999991
        },
        {
          "id": 13,
          "value": 0.809000254
        },
        {
          "id": 14,
          "value": 0.538999736
        },
        {
          "id": 15,
          "value": 0.347000241
        },
        {
          "id": 16,
          "value": 0.64100033
        },
        {
          "id": 17,
          "value": 0.76700002
        }
      ],
      "leftModuleId": 59,
      "rightModuleId": 70,
      "data": {
        "configurations": [
          {
            "type": 0,
            "loop": false
          },
          {
            "type": 0,
            "loop": false
          },
          {
            "type": 0,
            "loop": false
          },
          {
            "type": 0,
            "loop": false
          },
          {
            "type": 0,
            "loop": false
          },
          {
            "type": 0,
            "loop": false
          }
        ]
      },
      "pos": [
        33,
        3
      ]
    },
    {
      "id": 73,
      "plugin": "Fundamental",
      "version": "1.4.0",
      "model": "Delay",
      "params": [
        {
          "id": 0,
          "value": 0.845000148
        },
        {
          "id": 1,
          "value": 0.372499824
        },
        {
          "id": 2,
          "value": 0.5
        },
        {
          "id": 3,
          "value": 0.5
        }
      ],
      "leftModuleId": 69,
      "rightModuleId": 75,
      "pos": [
        67,
        3
      ]
    },
    {
      "id": 75,
      "plugin": "Fundamental",
      "version": "1.4.0",
      "model": "VCMixer",
      "params": [
        {
          "id": 0,
          "value": 0.432999879
        },
        {
          "id": 1,
          "value": 1.0
        },
        {
          "id": 2,
          "value": 0.605432153
        },
        {
          "id": 3,
          "value": 1.0
        },
        {
          "id": 4,
          "value": 1.0
        }
      ],
      "leftModuleId": 73,
      "rightModuleId": 76,
      "pos": [
        75,
        3
      ]
    },
    {
      "id": 76,
      "plugin": "Fundamental",
      "version": "1.4.0",
      "model": "Delay",
      "params": [
        {
          "id": 0,
          "value": 0.4799999
        },
        {
          "id": 1,
          "value": 0.5
        },
        {
          "id": 2,
          "value": 0.5
        },
        {
          "id": 3,
          "value": 0.5
        }
      ],
      "leftModuleId": 75,
      "rightModuleId": 77,
      "pos": [
        85,
        3
      ]
    },
    {
      "id": 77,
      "plugin": "AudibleInstruments",
      "version": "1.0.0",
      "model": "Stages",
      "params": [
        {
          "id": 0,
          "value": 0.5
        },
        {
          "id": 1,
          "value": 0.495500058
        },
        {
          "id": 2,
          "value": 0.497000039
        },
        {
          "id": 3,
          "value": 0.5
        },
        {
          "id": 4,
          "value": 0.5
        },
        {
          "id": 5,
          "value": 0.5
        },
        {
          "id": 6,
          "value": 0.0
        },
        {
          "id": 7,
          "value": 0.0
        },
        {
          "id": 8,
          "value": 0.0
        },
        {
          "id": 9,
          "value": 0.0
        },
        {
          "id": 10,
          "value": 0.0
        },
        {
          "id": 11,
          "value": 0.0
        },
        {
          "id": 12,
          "value": 0.0
        },
        {
          "id": 13,
          "value": 0.485000044
        },
        {
          "id": 14,
          "value": 0.5
        },
        {
          "id": 15,
          "value": 0.5
        },
        {
          "id": 16,
          "value": 0.5
        },
        {
          "id": 17,
          "value": 0.5
        }
      ],
      "leftModuleId": 76,
      "data": {
        "configurations": [
          {
            "type": 0,
            "loop": false
          },
          {
            "type": 0,
            "loop": false
          },
          {
            "type": 0,
            "loop": false
          },
          {
            "type": 0,
            "loop": false
          },
          {
            "type": 0,
            "loop": false
          },
          {
            "type": 0,
            "loop": false
          }
        ]
      },
      "pos": [
        93,
        3
      ]
    }
  ],
  "cables": [
    {
      "id": 367,
      "outputModuleId": 35,
      "outputId": 0,
      "inputModuleId": 1,
      "inputId": 1,
      "color": "#c91847"
    },
    {
      "id": 411,
      "outputModuleId": 2,
      "outputId": 0,
      "inputModuleId": 44,
      "inputId": 2,
      "color": "#0986ad"
    },
    {
      "id": 429,
      "outputModuleId": 28,
      "outputId": 2,
      "inputModuleId": 39,
      "inputId": 2,
      "color": "#c9b70e"
    },
    {
      "id": 396,
      "outputModuleId": 28,
      "outputId": 1,
      "inputModuleId": 39,
      "inputId": 0,
      "color": "#0c8e15"
    },
    {
      "id": 412,
      "outputModuleId": 35,
      "outputId": 0,
      "inputModuleId": 44,
      "inputId": 3,
      "color": "#c9b70e"
    },
    {
      "id": 481,
      "outputModuleId": 54,
      "outputId": 6,
      "inputModuleId": 50,
      "inputId": 0,
      "color": "#c9b70e"
    },
    {
      "id": 482,
      "outputModuleId": 17,
      "outputId": 0,
      "inputModuleId": 54,
      "inputId": 4,
      "color": "#0c8e15"
    },
    {
      "id": 484,
      "outputModuleId": 53,
      "outputId": 12,
      "inputModuleId": 36,
      "inputId": 6,
      "color": "#0c8e15"
    },
    {
      "id": 483,
      "outputModuleId": 17,
      "outputId": 4,
      "inputModuleId": 53,
      "inputId": 0,
      "color": "#c9b70e"
    },
    {
      "id": 471,
      "outputModuleId": 17,
      "outputId": 4,
      "inputModuleId": 36,
      "inputId": 5,
      "color": "#c9b70e"
    },
    {
      "id": 479,
      "outputModuleId": 51,
      "outputId": 5,
      "inputModuleId": 54,
      "inputId": 3,
      "color": "#0c8e15"
    },
    {
      "id": 490,
      "outputModuleId": 53,
      "outputId": 0,
      "inputModuleId": 45,
      "inputId": 17,
      "color": "#0c8e15"
    },
    {
      "id": 496,
      "outputModuleId": 50,
      "outputId": 1,
      "inputModuleId": 45,
      "inputId": 1,
      "color": "#0986ad"
    },
    {
      "id": 495,
      "outputModuleId": 53,
      "outputId": 7,
      "inputModuleId": 50,
      "inputId": 1,
      "color": "#c91847"
    },
    {
      "id": 491,
      "outputModuleId": 45,
      "outputId": 1,
      "inputModuleId": 57,
      "inputId": 1,
      "color": "#c91847"
    },
    {
      "id": 501,
      "outputModuleId": 45,
      "outputId": 0,
      "inputModuleId": 57,
      "inputId": 2,
      "color": "#0c8e15"
    },
    {
      "id": 500,
      "outputModuleId": 57,
      "outputId": 0,
      "inputModuleId": 58,
      "inputId": 4,
      "color": "#c9b70e"
    },
    {
      "id": 502,
      "outputModuleId": 58,
      "outputId": 0,
      "inputModuleId": 35,
      "inputId": 4,
      "color": "#c91847"
    },
    {
      "id": 503,
      "outputModuleId": 58,
      "outputId": 0,
      "inputModuleId": 2,
      "inputId": 4,
      "color": "#0986ad"
    },
    {
      "id": 520,
      "outputModuleId": 39,
      "outputId": 0,
      "inputModuleId": 38,
      "inputId": 1,
      "color": "#c9b70e"
    },
    {
      "id": 522,
      "outputModuleId": 39,
      "outputId": 0,
      "inputModuleId": 37,
      "inputId": 1,
      "color": "#c9b70e"
    },
    {
      "id": 523,
      "outputModuleId": 38,
      "outputId": 7,
      "inputModuleId": 37,
      "inputId": 4,
      "color": "#0c8e15"
    },
    {
      "id": 528,
      "outputModuleId": 53,
      "outputId": 12,
      "inputModuleId": 37,
      "inputId": 6,
      "color": "#0986ad"
    },
    {
      "id": 521,
      "outputModuleId": 38,
      "outputId": 8,
      "inputModuleId": 37,
      "inputId": 0,
      "color": "#c91847"
    },
    {
      "id": 380,
      "outputModuleId": 37,
      "outputId": 0,
      "inputModuleId": 64,
      "inputId": 3,
      "color": "#c9b70e"
    },
    {
      "id": 530,
      "outputModuleId": 64,
      "outputId": 0,
      "inputModuleId": 2,
      "inputId": 3,
      "color": "#0c8e15"
    },
    {
      "id": 532,
      "outputModuleId": 38,
      "outputId": 9,
      "inputModuleId": 50,
      "inputId": 3,
      "color": "#0986ad"
    },
    {
      "id": 538,
      "outputModuleId": 37,
      "outputId": 1,
      "inputModuleId": 65,
      "inputId": 3,
      "color": "#0c8e15"
    },
    {
      "id": 539,
      "outputModuleId": 65,
      "outputId": 0,
      "inputModuleId": 35,
      "inputId": 3,
      "color": "#c91847"
    },
    {
      "id": 542,
      "outputModuleId": 36,
      "outputId": 0,
      "inputModuleId": 66,
      "inputId": 4,
      "color": "#0c8e15"
    },
    {
      "id": 543,
      "outputModuleId": 66,
      "outputId": 0,
      "inputModuleId": 2,
      "inputId": 1,
      "color": "#c91847"
    },
    {
      "id": 544,
      "outputModuleId": 67,
      "outputId": 0,
      "inputModuleId": 35,
      "inputId": 1,
      "color": "#0986ad"
    },
    {
      "id": 545,
      "outputModuleId": 36,
      "outputId": 1,
      "inputModuleId": 67,
      "inputId": 4,
      "color": "#c9b70e"
    },
    {
      "id": 560,
      "outputModuleId": 50,
      "outputId": 0,
      "inputModuleId": 36,
      "inputId": 7,
      "color": "#c9b70e"
    },
    {
      "id": 564,
      "outputModuleId": 51,
      "outputId": 1,
      "inputModuleId": 70,
      "inputId": 1,
      "color": "#c9b70e"
    },
    {
      "id": 567,
      "outputModuleId": 51,
      "outputId": 0,
      "inputModuleId": 50,
      "inputId": 2,
      "color": "#0986ad"
    },
    {
      "id": 573,
      "outputModuleId": 71,
      "outputId": 0,
      "inputModuleId": 70,
      "inputId": 4,
      "color": "#0c8e15"
    },
    {
      "id": 574,
      "outputModuleId": 71,
      "outputId": 0,
      "inputModuleId": 70,
      "inputId": 5,
      "color": "#c91847"
    },
    {
      "id": 349,
      "outputModuleId": 2,
      "outputId": 0,
      "inputModuleId": 1,
      "inputId": 0,
      "color": "#0986ad"
    },
    {
      "id": 561,
      "outputModuleId": 51,
      "outputId": 3,
      "inputModuleId": 70,
      "inputId": 0,
      "color": "#0c8e15"
    },
    {
      "id": 576,
      "outputModuleId": 71,
      "outputId": 1,
      "inputModuleId": 71,
      "inputId": 8,
      "color": "#c9b70e"
    },
    {
      "id": 577,
      "outputModuleId": 71,
      "outputId": 3,
      "inputModuleId": 71,
      "inputId": 10,
      "color": "#0c8e15"
    },
    {
      "id": 563,
      "outputModuleId": 70,
      "outputId": 1,
      "inputModuleId": 69,
      "inputId": 3,
      "color": "#0986ad"
    },
    {
      "id": 578,
      "outputModuleId": 71,
      "outputId": 4,
      "inputModuleId": 75,
      "inputId": 6,
      "color": "#c91847"
    },
    {
      "id": 587,
      "outputModuleId": 69,
      "outputId": 0,
      "inputModuleId": 73,
      "inputId": 4,
      "color": "#c9b70e"
    },
    {
      "id": 585,
      "outputModuleId": 73,
      "outputId": 0,
      "inputModuleId": 75,
      "inputId": 1,
      "color": "#c91847"
    },
    {
      "id": 588,
      "outputModuleId": 70,
      "outputId": 1,
      "inputModuleId": 75,
      "inputId": 2,
      "color": "#0c8e15"
    },
    {
      "id": 589,
      "outputModuleId": 71,
      "outputId": 4,
      "inputModuleId": 69,
      "inputId": 0,
      "color": "#c91847"
    },
    {
      "id": 596,
      "outputModuleId": 75,
      "outputId": 0,
      "inputModuleId": 2,
      "inputId": 2,
      "color": "#c91847"
    },
    {
      "id": 572,
      "outputModuleId": 59,
      "outputId": 3,
      "inputModuleId": 71,
      "inputId": 6,
      "color": "#c9b70e"
    },
    {
      "id": 599,
      "outputModuleId": 17,
      "outputId": 1,
      "inputModuleId": 53,
      "inputId": 3,
      "color": "#0c8e15"
    },
    {
      "id": 492,
      "outputModuleId": 53,
      "outputId": 2,
      "inputModuleId": 45,
      "inputId": 16,
      "color": "#0986ad"
    },
    {
      "id": 600,
      "outputModuleId": 38,
      "outputId": 6,
      "inputModuleId": 36,
      "inputId": 3,
      "color": "#c91847"
    },
    {
      "id": 604,
      "outputModuleId": 38,
      "outputId": 6,
      "inputModuleId": 36,
      "inputId": 1,
      "color": "#c91847"
    },
    {
      "id": 605,
      "outputModuleId": 38,
      "outputId": 6,
      "inputModuleId": 36,
      "inputId": 2,
      "color": "#0986ad"
    },
    {
      "id": 606,
      "outputModuleId": 53,
      "outputId": 9,
      "inputModuleId": 38,
      "inputId": 2,
      "color": "#c9b70e"
    },
    {
      "id": 609,
      "outputModuleId": 17,
      "outputId": 3,
      "inputModuleId": 38,
      "inputId": 3,
      "color": "#c9b70e"
    },
    {
      "id": 612,
      "outputModuleId": 38,
      "outputId": 4,
      "inputModuleId": 37,
      "inputId": 5,
      "color": "#c9b70e"
    },
    {
      "id": 614,
      "outputModuleId": 38,
      "outputId": 10,
      "inputModuleId": 64,
      "inputId": 0,
      "color": "#0986ad"
    },
    {
      "id": 615,
      "outputModuleId": 38,
      "outputId": 10,
      "inputModuleId": 65,
      "inputId": 0,
      "color": "#c9b70e"
    },
    {
      "id": 620,
      "outputModuleId": 77,
      "outputId": 4,
      "inputModuleId": 77,
      "inputId": 10,
      "color": "#0c8e15"
    },
    {
      "id": 624,
      "outputModuleId": 38,
      "outputId": 4,
      "inputModuleId": 77,
      "inputId": 6,
      "color": "#0c8e15"
    },
    {
      "id": 628,
      "outputModuleId": 75,
      "outputId": 0,
      "inputModuleId": 76,
      "inputId": 4,
      "color": "#0986ad"
    },
    {
      "id": 630,
      "outputModuleId": 75,
      "outputId": 0,
      "inputModuleId": 35,
      "inputId": 2,
      "color": "#0c8e15"
    },
    {
      "id": 631,
      "outputModuleId": 77,
      "outputId": 0,
      "inputModuleId": 37,
      "inputId": 3,
      "color": "#c91847"
    },
    {
      "id": 634,
      "outputModuleId": 28,
      "outputId": 0,
      "inputModuleId": 17,
      "inputId": 0,
      "color": "#0c8e15"
    },
    {
      "id": 636,
      "outputModuleId": 17,
      "outputId": 5,
      "inputModuleId": 77,
      "inputId": 8,
      "color": "#c9b70e"
    },
    {
      "id": 638,
      "outputModuleId": 77,
      "outputId": 2,
      "inputModuleId": 66,
      "inputId": 0,
      "color": "#c91847"
    },
    {
      "id": 637,
      "outputModuleId": 77,
      "outputId": 2,
      "inputModuleId": 67,
      "inputId": 0,
      "color": "#0c8e15"
    }
  ]
}