{
  "version": "1.1.6",
  "modules": [
    {
      "id": 47,
      "plugin": "Fundamental",
      "version": "1.4.0",
      "model": "Scope",
      "params": [
        {
          "id": 0,
          "value": -2.0
        },
        {
          "id": 1,
          "value": 0.0
        },
        {
          "id": 2,
          "value": -1.0
        },
        {
          "id": 3,
          "value": 0.0
        },
        {
          "id": 4,
          "value": 6.0
        },
        {
          "id": 5,
          "value": 0.0
        },
        {
          "id": 6,
          "value": 0.0
        },
        {
          "id": 7,
          "value": 0.0
        }
      ],
      "leftModuleId": 100,
      "rightModuleId": 1,
      "data": {
        "lissajous": 0,
        "external": 0
      },
      "pos": [
        70,
        0
      ]
    },
    {
      "id": 78,
      "plugin": "VCV-Recorder",
      "version": "1.0.1",
      "model": "Recorder",
      "params": [
        {
          "id": 0,
          "value": 0.971000254
        },
        {
          "id": 1,
          "value": 0.0
        }
      ],
      "leftModuleId": 1,
      "data": {
        "format": "wav",
        "path": "/Users/magfoto/Library/Mobile Documents/com~apple~CloudDocs/York U - PhD Study/_courses/DIGM 6020 - Vertical Studio Lab II/gitshow3/recording.wav",
        "incrementPath": false,
        "sampleRate": 44100,
        "depth": 16,
        "bitRate": 320000
      },
      "pos": [
        93,
        0
      ]
    },
    {
      "id": 1,
      "plugin": "Core",
      "version": "1.1.6",
      "model": "AudioInterface",
      "params": [],
      "leftModuleId": 47,
      "rightModuleId": 78,
      "data": {
        "audio": {
          "driver": 6,
          "deviceName": "Speakers (Realtek(R) Audio)",
          "offset": 0,
          "maxChannels": 8,
          "sampleRate": 48000,
          "blockSize": 256
        }
      },
      "pos": [
        83,
        0
      ]
    },
    {
      "id": 84,
      "plugin": "cf",
      "version": "1.1.1",
      "model": "DISTO",
      "params": [
        {
          "id": 0,
          "value": 7.39000654
        },
        {
          "id": 1,
          "value": 3.46000171
        }
      ],
      "leftModuleId": 135,
      "rightModuleId": 136,
      "pos": [
        75,
        2
      ]
    },
    {
      "id": 89,
      "plugin": "Core",
      "version": "1.1.6",
      "model": "MIDIToCVInterface",
      "params": [],
      "rightModuleId": 134,
      "data": {
        "channels": 1,
        "polyMode": 0,
        "clockDivision": 24,
        "lastPitch": 8192,
        "lastMod": 0,
        "midi": {
          "driver": -11,
          "deviceName": "QWERTY keyboard (US)",
          "channel": -1
        }
      },
      "pos": [
        0,
        2
      ]
    },
    {
      "id": 90,
      "plugin": "cf",
      "version": "1.1.1",
      "model": "trSEQ",
      "params": [
        {
          "id": 0,
          "value": 1.84399974
        },
        {
          "id": 1,
          "value": 0.0
        },
        {
          "id": 2,
          "value": 0.0
        },
        {
          "id": 3,
          "value": 0.0
        },
        {
          "id": 4,
          "value": 0.0
        },
        {
          "id": 5,
          "value": 16.0
        },
        {
          "id": 6,
          "value": 0.0
        },
        {
          "id": 7,
          "value": 0.0
        },
        {
          "id": 8,
          "value": 0.0
        },
        {
          "id": 9,
          "value": 0.0
        },
        {
          "id": 10,
          "value": 0.0
        },
        {
          "id": 11,
          "value": 0.0
        },
        {
          "id": 12,
          "value": 0.0
        },
        {
          "id": 13,
          "value": 0.0
        },
        {
          "id": 14,
          "value": 0.0
        },
        {
          "id": 15,
          "value": 0.0
        },
        {
          "id": 16,
          "value": 0.0
        },
        {
          "id": 17,
          "value": 0.0
        },
        {
          "id": 18,
          "value": 0.0
        },
        {
          "id": 19,
          "value": 0.0
        },
        {
          "id": 20,
          "value": 0.0
        },
        {
          "id": 21,
          "value": 0.0
        },
        {
          "id": 22,
          "value": 0.0
        },
        {
          "id": 23,
          "value": 0.0
        },
        {
          "id": 24,
          "value": 0.0
        },
        {
          "id": 25,
          "value": 0.0
        },
        {
          "id": 26,
          "value": 0.0
        },
        {
          "id": 27,
          "value": 0.0
        },
        {
          "id": 28,
          "value": 0.0
        },
        {
          "id": 29,
          "value": 0.0
        },
        {
          "id": 30,
          "value": 0.0
        },
        {
          "id": 31,
          "value": 0.0
        },
        {
          "id": 32,
          "value": 0.0
        },
        {
          "id": 33,
          "value": 0.0
        },
        {
          "id": 34,
          "value": 0.0
        },
        {
          "id": 35,
          "value": 0.0
        },
        {
          "id": 36,
          "value": 0.0
        }
      ],
      "leftModuleId": 108,
      "rightModuleId": 101,
      "data": {
        "running": true,
        "gates": [
          1,
          0,
          1,
          0,
          0,
          0,
          0,
          0,
          0,
          0,
          0,
          0,
          1,
          0,
          1,
          0
        ],
        "gateMode": 0
      },
      "pos": [
        28,
        2
      ]
    },
    {
      "id": 91,
      "plugin": "cf",
      "version": "1.1.1",
      "model": "PLAYER",
      "params": [
        {
          "id": 0,
          "value": 5.67000389
        },
        {
          "id": 1,
          "value": -0.0300002098
        },
        {
          "id": 2,
          "value": -0.0269999262
        },
        {
          "id": 3,
          "value": 0.128999993
        },
        {
          "id": 4,
          "value": 0.0
        },
        {
          "id": 5,
          "value": 0.0
        },
        {
          "id": 6,
          "value": 0.0
        }
      ],
      "leftModuleId": 93,
      "rightModuleId": 102,
      "data": {
        "lastPath": "C:\\dispersion-lab\\gitshow3\\samples\\Babe Ruth - The Mexican_01.wav",
        "oscstate": 0
      },
      "pos": [
        28,
        1
      ]
    },
    {
      "id": 92,
      "plugin": "cf",
      "version": "1.1.1",
      "model": "METRO",
      "params": [
        {
          "id": 0,
          "value": 58.2434616
        },
        {
          "id": 1,
          "value": 0.0
        },
        {
          "id": 2,
          "value": 0.0
        },
        {
          "id": 3,
          "value": 0.0
        }
      ],
      "leftModuleId": 98,
      "rightModuleId": 93,
      "data": {
        "onstate": 1
      },
      "pos": [
        16,
        1
      ]
    },
    {
      "id": 93,
      "plugin": "AudibleInstruments",
      "version": "1.0.0",
      "model": "Branches",
      "params": [
        {
          "id": 0,
          "value": 0.515499949
        },
        {
          "id": 1,
          "value": 0.879499972
        },
        {
          "id": 2,
          "value": 0.0
        },
        {
          "id": 3,
          "value": 0.0
        }
      ],
      "leftModuleId": 92,
      "rightModuleId": 91,
      "data": {
        "modes": [
          false,
          false
        ]
      },
      "pos": [
        22,
        1
      ]
    },
    {
      "id": 94,
      "plugin": "dBiz",
      "version": "1.1.2",
      "model": "TROSC",
      "params": [
        {
          "id": 0,
          "value": 0.0
        },
        {
          "id": 1,
          "value": 0.0
        },
        {
          "id": 2,
          "value": 1.0
        },
        {
          "id": 3,
          "value": 1.0
        },
        {
          "id": 4,
          "value": 1.0
        },
        {
          "id": 5,
          "value": 1.0
        },
        {
          "id": 6,
          "value": 1.0
        },
        {
          "id": 7,
          "value": 1.0
        },
        {
          "id": 8,
          "value": 0.0
        },
        {
          "id": 9,
          "value": 0.0
        },
        {
          "id": 10,
          "value": 0.0
        },
        {
          "id": 11,
          "value": -54.0
        },
        {
          "id": 12,
          "value": 1.0
        },
        {
          "id": 13,
          "value": -52.7040024
        },
        {
          "id": 14,
          "value": 0.804999948
        },
        {
          "id": 15,
          "value": -54.0
        },
        {
          "id": 16,
          "value": 0.0
        },
        {
          "id": 17,
          "value": 0.0
        },
        {
          "id": 18,
          "value": 0.375
        },
        {
          "id": 19,
          "value": 0.0
        },
        {
          "id": 20,
          "value": 0.0
        },
        {
          "id": 21,
          "value": 0.983999968
        },
        {
          "id": 22,
          "value": 0.0
        },
        {
          "id": 23,
          "value": 0.0270000007
        },
        {
          "id": 24,
          "value": 0.0
        },
        {
          "id": 25,
          "value": 0.2700001
        },
        {
          "id": 26,
          "value": 0.278999984
        },
        {
          "id": 27,
          "value": 0.0
        },
        {
          "id": 28,
          "value": 0.0
        }
      ],
      "leftModuleId": 121,
      "rightModuleId": 117,
      "pos": [
        66,
        1
      ]
    },
    {
      "id": 98,
      "plugin": "Core",
      "version": "1.1.6",
      "model": "Notes",
      "params": [],
      "rightModuleId": 92,
      "text": "METRO \n58\n\nPLAYER \nThe Mexican: start at 5.67\nYellow Sunshine: start at 1.29 \n\nLFO-1\n\nFREQ    0.35527S\nplay with  UNI/BIs \n",
      "pos": [
        0,
        1
      ]
    },
    {
      "id": 100,
      "plugin": "dBiz",
      "version": "1.1.2",
      "model": "SPan",
      "params": [
        {
          "id": 0,
          "value": 1.0
        },
        {
          "id": 1,
          "value": 1.0
        },
        {
          "id": 2,
          "value": 0.493000031
        },
        {
          "id": 3,
          "value": 0.0
        },
        {
          "id": 4,
          "value": 1.0
        }
      ],
      "leftModuleId": 137,
      "rightModuleId": 47,
      "pos": [
        62,
        0
      ]
    },
    {
      "id": 101,
      "plugin": "Fundamental",
      "version": "1.4.0",
      "model": "LFO",
      "params": [
        {
          "id": 0,
          "value": 1.0
        },
        {
          "id": 1,
          "value": 0.0
        },
        {
          "id": 2,
          "value": -1.49300039
        },
        {
          "id": 3,
          "value": 1.0
        },
        {
          "id": 4,
          "value": 0.963999867
        },
        {
          "id": 5,
          "value": 0.99000001
        },
        {
          "id": 6,
          "value": 1.0
        }
      ],
      "leftModuleId": 90,
      "rightModuleId": 135,
      "pos": [
        50,
        2
      ]
    },
    {
      "id": 102,
      "plugin": "cf",
      "version": "1.1.1",
      "model": "PLAYER",
      "params": [
        {
          "id": 0,
          "value": 1.29000676
        },
        {
          "id": 1,
          "value": 0.134999081
        },
        {
          "id": 2,
          "value": -0.0269999262
        },
        {
          "id": 3,
          "value": 0.128999993
        },
        {
          "id": 4,
          "value": 0.0
        },
        {
          "id": 5,
          "value": 0.0
        },
        {
          "id": 6,
          "value": 0.0
        }
      ],
      "leftModuleId": 91,
      "rightModuleId": 142,
      "data": {
        "lastPath": "C:\\dispersion-lab\\gitshow3\\samples\\Yellow Sunshine - Yellow Sunshine (Audio)_01.wav",
        "oscstate": 0
      },
      "pos": [
        37,
        1
      ]
    },
    {
      "id": 107,
      "plugin": "cf",
      "version": "1.1.1",
      "model": "METRO",
      "params": [
        {
          "id": 0,
          "value": 58.2435303
        },
        {
          "id": 1,
          "value": 0.0
        },
        {
          "id": 2,
          "value": 0.0
        },
        {
          "id": 3,
          "value": 0.0
        }
      ],
      "leftModuleId": 134,
      "rightModuleId": 108,
      "data": {
        "onstate": 1
      },
      "pos": [
        16,
        2
      ]
    },
    {
      "id": 108,
      "plugin": "AudibleInstruments",
      "version": "1.0.0",
      "model": "Branches",
      "params": [
        {
          "id": 0,
          "value": 0.498499393
        },
        {
          "id": 1,
          "value": 0.879499972
        },
        {
          "id": 2,
          "value": 0.0
        },
        {
          "id": 3,
          "value": 0.0
        }
      ],
      "leftModuleId": 107,
      "rightModuleId": 90,
      "data": {
        "modes": [
          false,
          false
        ]
      },
      "pos": [
        22,
        2
      ]
    },
    {
      "id": 117,
      "plugin": "Fundamental",
      "version": "1.4.0",
      "model": "VCMixer",
      "params": [
        {
          "id": 0,
          "value": 1.0170002
        },
        {
          "id": 1,
          "value": 0.782059729
        },
        {
          "id": 2,
          "value": 0.8018592
        },
        {
          "id": 3,
          "value": 1.0
        },
        {
          "id": 4,
          "value": 1.0
        }
      ],
      "leftModuleId": 94,
      "pos": [
        88,
        1
      ]
    },
    {
      "id": 121,
      "plugin": "Alikins",
      "version": "1.0.1",
      "model": "BigMuteButton",
      "params": [
        {
          "id": 0,
          "value": 0.0
        }
      ],
      "leftModuleId": 129,
      "rightModuleId": 94,
      "pos": [
        60,
        1
      ]
    },
    {
      "id": 129,
      "plugin": "Alikins",
      "version": "1.0.1",
      "model": "BigMuteButton",
      "params": [
        {
          "id": 0,
          "value": 1.0
        }
      ],
      "leftModuleId": 142,
      "rightModuleId": 121,
      "pos": [
        54,
        1
      ]
    },
    {
      "id": 134,
      "plugin": "Core",
      "version": "1.1.6",
      "model": "Blank",
      "params": [],
      "leftModuleId": 89,
      "rightModuleId": 107,
      "width": 120.0,
      "pos": [
        8,
        2
      ]
    },
    {
      "id": 135,
      "plugin": "Core",
      "version": "1.1.6",
      "model": "Blank",
      "params": [],
      "leftModuleId": 101,
      "rightModuleId": 84,
      "width": 225.0,
      "pos": [
        60,
        2
      ]
    },
    {
      "id": 136,
      "plugin": "Core",
      "version": "1.1.6",
      "model": "Blank",
      "params": [],
      "leftModuleId": 84,
      "width": 225.0,
      "pos": [
        83,
        2
      ]
    },
    {
      "id": 137,
      "plugin": "Core",
      "version": "1.1.6",
      "model": "Blank",
      "params": [],
      "rightModuleId": 100,
      "width": 930.0,
      "pos": [
        0,
        0
      ]
    },
    {
      "id": 142,
      "plugin": "Fundamental",
      "version": "1.4.0",
      "model": "Mutes",
      "params": [
        {
          "id": 0,
          "value": 0.0
        },
        {
          "id": 1,
          "value": 0.0
        },
        {
          "id": 2,
          "value": 0.0
        },
        {
          "id": 3,
          "value": 0.0
        },
        {
          "id": 4,
          "value": 0.0
        },
        {
          "id": 5,
          "value": 0.0
        },
        {
          "id": 6,
          "value": 0.0
        },
        {
          "id": 7,
          "value": 0.0
        },
        {
          "id": 8,
          "value": 0.0
        },
        {
          "id": 9,
          "value": 0.0
        }
      ],
      "leftModuleId": 102,
      "rightModuleId": 129,
      "data": {
        "states": [
          true,
          true,
          true,
          true,
          false,
          false,
          false,
          false,
          false,
          false
        ]
      },
      "pos": [
        46,
        1
      ]
    }
  ],
  "cables": [
    {
      "id": 727,
      "outputModuleId": 92,
      "outputId": 2,
      "inputModuleId": 93,
      "inputId": 0,
      "color": "#c91847"
    },
    {
      "id": 730,
      "outputModuleId": 90,
      "outputId": 0,
      "inputModuleId": 91,
      "inputId": 0,
      "color": "#0c8e15"
    },
    {
      "id": 729,
      "outputModuleId": 93,
      "outputId": 0,
      "inputModuleId": 90,
      "inputId": 8,
      "color": "#c9b70e"
    },
    {
      "id": 782,
      "outputModuleId": 100,
      "outputId": 0,
      "inputModuleId": 47,
      "inputId": 0,
      "color": "#c9b70e"
    },
    {
      "id": 783,
      "outputModuleId": 100,
      "outputId": 1,
      "inputModuleId": 47,
      "inputId": 1,
      "color": "#0c8e15"
    },
    {
      "id": 797,
      "outputModuleId": 107,
      "outputId": 2,
      "inputModuleId": 108,
      "inputId": 0,
      "color": "#c91847"
    },
    {
      "id": 723,
      "outputModuleId": 92,
      "outputId": 3,
      "inputModuleId": 90,
      "inputId": 1,
      "color": "#c91847"
    },
    {
      "id": 724,
      "outputModuleId": 92,
      "outputId": 2,
      "inputModuleId": 90,
      "inputId": 2,
      "color": "#0986ad"
    },
    {
      "id": 726,
      "outputModuleId": 93,
      "outputId": 1,
      "inputModuleId": 90,
      "inputId": 18,
      "color": "#0c8e15"
    },
    {
      "id": 863,
      "outputModuleId": 107,
      "outputId": 2,
      "inputModuleId": 102,
      "inputId": 0,
      "color": "#0986ad"
    },
    {
      "id": 799,
      "outputModuleId": 108,
      "outputId": 0,
      "inputModuleId": 90,
      "inputId": 10,
      "color": "#c9b70e"
    },
    {
      "id": 864,
      "outputModuleId": 108,
      "outputId": 1,
      "inputModuleId": 90,
      "inputId": 20,
      "color": "#c9b70e"
    },
    {
      "id": 865,
      "outputModuleId": 108,
      "outputId": 3,
      "inputModuleId": 102,
      "inputId": 5,
      "color": "#0c8e15"
    },
    {
      "id": 880,
      "outputModuleId": 121,
      "outputId": 0,
      "inputModuleId": 117,
      "inputId": 1,
      "color": "#c9b70e"
    },
    {
      "id": 881,
      "outputModuleId": 121,
      "outputId": 1,
      "inputModuleId": 117,
      "inputId": 2,
      "color": "#0c8e15"
    },
    {
      "id": 779,
      "outputModuleId": 84,
      "outputId": 0,
      "inputModuleId": 100,
      "inputId": 10,
      "color": "#0986ad"
    },
    {
      "id": 735,
      "outputModuleId": 93,
      "outputId": 3,
      "inputModuleId": 91,
      "inputId": 5,
      "color": "#0c8e15"
    },
    {
      "id": 902,
      "outputModuleId": 91,
      "outputId": 0,
      "inputModuleId": 100,
      "inputId": 8,
      "color": "#0986ad"
    },
    {
      "id": 903,
      "outputModuleId": 91,
      "outputId": 1,
      "inputModuleId": 100,
      "inputId": 9,
      "color": "#c9b70e"
    },
    {
      "id": 912,
      "outputModuleId": 129,
      "outputId": 1,
      "inputModuleId": 1,
      "inputId": 5,
      "color": "#c9b70e"
    },
    {
      "id": 917,
      "outputModuleId": 89,
      "outputId": 1,
      "inputModuleId": 101,
      "inputId": 0,
      "color": "#c91847"
    },
    {
      "id": 777,
      "outputModuleId": 101,
      "outputId": 1,
      "inputModuleId": 84,
      "inputId": 0,
      "color": "#0986ad"
    },
    {
      "id": 924,
      "outputModuleId": 89,
      "outputId": 1,
      "inputModuleId": 101,
      "inputId": 1,
      "color": "#0986ad"
    },
    {
      "id": 781,
      "outputModuleId": 94,
      "outputId": 1,
      "inputModuleId": 84,
      "inputId": 2,
      "color": "#0986ad"
    },
    {
      "id": 780,
      "outputModuleId": 101,
      "outputId": 0,
      "inputModuleId": 94,
      "inputId": 1,
      "color": "#c91847"
    },
    {
      "id": 843,
      "outputModuleId": 117,
      "outputId": 1,
      "inputModuleId": 78,
      "inputId": 2,
      "color": "#0986ad"
    },
    {
      "id": 927,
      "outputModuleId": 117,
      "outputId": 2,
      "inputModuleId": 78,
      "inputId": 3,
      "color": "#c91847"
    },
    {
      "id": 928,
      "outputModuleId": 117,
      "outputId": 1,
      "inputModuleId": 1,
      "inputId": 0,
      "color": "#0986ad"
    },
    {
      "id": 929,
      "outputModuleId": 117,
      "outputId": 2,
      "inputModuleId": 1,
      "inputId": 1,
      "color": "#c9b70e"
    },
    {
      "id": 911,
      "outputModuleId": 129,
      "outputId": 0,
      "inputModuleId": 1,
      "inputId": 4,
      "color": "#0986ad"
    },
    {
      "id": 930,
      "outputModuleId": 102,
      "outputId": 1,
      "inputModuleId": 142,
      "inputId": 3,
      "color": "#0986ad"
    },
    {
      "id": 925,
      "outputModuleId": 102,
      "outputId": 0,
      "inputModuleId": 142,
      "inputId": 2,
      "color": "#0c8e15"
    },
    {
      "id": 932,
      "outputModuleId": 142,
      "outputId": 2,
      "inputModuleId": 129,
      "inputId": 0,
      "color": "#0c8e15"
    },
    {
      "id": 878,
      "outputModuleId": 100,
      "outputId": 1,
      "inputModuleId": 142,
      "inputId": 1,
      "color": "#c91847"
    },
    {
      "id": 879,
      "outputModuleId": 100,
      "outputId": 0,
      "inputModuleId": 142,
      "inputId": 0,
      "color": "#0986ad"
    },
    {
      "id": 933,
      "outputModuleId": 142,
      "outputId": 1,
      "inputModuleId": 121,
      "inputId": 1,
      "color": "#0986ad"
    },
    {
      "id": 934,
      "outputModuleId": 142,
      "outputId": 0,
      "inputModuleId": 121,
      "inputId": 0,
      "color": "#0c8e15"
    },
    {
      "id": 935,
      "outputModuleId": 142,
      "outputId": 3,
      "inputModuleId": 129,
      "inputId": 1,
      "color": "#c91847"
    }
  ]
}