{
  "version": "1.1.6",
  "modules": [
    {
      "id": 47,
      "plugin": "Fundamental",
      "version": "1.4.0",
      "model": "Scope",
      "params": [
        {
          "id": 0,
          "value": 0.0
        },
        {
          "id": 1,
          "value": 0.0
        },
        {
          "id": 2,
          "value": -1.0
        },
        {
          "id": 3,
          "value": 0.0
        },
        {
          "id": 4,
          "value": 6.0
        },
        {
          "id": 5,
          "value": 0.0
        },
        {
          "id": 6,
          "value": 0.0
        },
        {
          "id": 7,
          "value": 0.0
        }
      ],
      "leftModuleId": 100,
      "data": {
        "lissajous": 0,
        "external": 0
      },
      "pos": [
        38,
        0
      ]
    },
    {
      "id": 1,
      "plugin": "Core",
      "version": "1.1.6",
      "model": "AudioInterface",
      "params": [],
      "rightModuleId": 146,
      "data": {
        "audio": {
          "driver": 5,
          "deviceName": "4c: ",
          "offset": 0,
          "maxChannels": 8,
          "sampleRate": 48000,
          "blockSize": 256
        }
      },
      "pos": [
        67,
        0
      ]
    },
    {
      "id": 84,
      "plugin": "cf",
      "version": "1.1.1",
      "model": "DISTO",
      "params": [
        {
          "id": 0,
          "value": 7.39000654
        },
        {
          "id": 1,
          "value": 3.46000171
        }
      ],
      "leftModuleId": 135,
      "rightModuleId": 136,
      "pos": [
        63,
        2
      ]
    },
    {
      "id": 89,
      "plugin": "Core",
      "version": "1.1.6",
      "model": "MIDIToCVInterface",
      "params": [],
      "leftModuleId": 108,
      "rightModuleId": 90,
      "data": {
        "channels": 1,
        "polyMode": 0,
        "clockDivision": 24,
        "lastPitch": 8192,
        "lastMod": 0,
        "midi": {
          "driver": -11,
          "deviceName": "QWERTY keyboard (US)",
          "channel": -1
        }
      },
      "pos": [
        12,
        2
      ]
    },
    {
      "id": 90,
      "plugin": "cf",
      "version": "1.1.1",
      "model": "trSEQ",
      "params": [
        {
          "id": 0,
          "value": 0.583999336
        },
        {
          "id": 1,
          "value": 0.0
        },
        {
          "id": 2,
          "value": 0.0
        },
        {
          "id": 3,
          "value": 0.0
        },
        {
          "id": 4,
          "value": 0.0
        },
        {
          "id": 5,
          "value": 16.0
        },
        {
          "id": 6,
          "value": 0.0
        },
        {
          "id": 7,
          "value": 0.0
        },
        {
          "id": 8,
          "value": 0.0
        },
        {
          "id": 9,
          "value": 0.0
        },
        {
          "id": 10,
          "value": 0.0
        },
        {
          "id": 11,
          "value": 0.0
        },
        {
          "id": 12,
          "value": 0.0
        },
        {
          "id": 13,
          "value": 0.0
        },
        {
          "id": 14,
          "value": 0.0
        },
        {
          "id": 15,
          "value": 0.0
        },
        {
          "id": 16,
          "value": 0.0
        },
        {
          "id": 17,
          "value": 0.0
        },
        {
          "id": 18,
          "value": 0.0
        },
        {
          "id": 19,
          "value": 0.0
        },
        {
          "id": 20,
          "value": 0.0
        },
        {
          "id": 21,
          "value": 0.0
        },
        {
          "id": 22,
          "value": 0.0
        },
        {
          "id": 23,
          "value": 0.0
        },
        {
          "id": 24,
          "value": 0.0
        },
        {
          "id": 25,
          "value": 0.0
        },
        {
          "id": 26,
          "value": 0.0
        },
        {
          "id": 27,
          "value": 0.0
        },
        {
          "id": 28,
          "value": 0.0
        },
        {
          "id": 29,
          "value": 0.0
        },
        {
          "id": 30,
          "value": 0.0
        },
        {
          "id": 31,
          "value": 0.0
        },
        {
          "id": 32,
          "value": 0.0
        },
        {
          "id": 33,
          "value": 0.0
        },
        {
          "id": 34,
          "value": 0.0
        },
        {
          "id": 35,
          "value": 0.0
        },
        {
          "id": 36,
          "value": 0.0
        }
      ],
      "leftModuleId": 89,
      "rightModuleId": 101,
      "data": {
        "running": true,
        "gates": [
          1,
          0,
          0,
          0,
          0,
          0,
          0,
          0,
          0,
          0,
          0,
          0,
          1,
          0,
          0,
          0
        ],
        "gateMode": 0
      },
      "pos": [
        20,
        2
      ]
    },
    {
      "id": 91,
      "plugin": "cf",
      "version": "1.1.1",
      "model": "PLAYER",
      "params": [
        {
          "id": 0,
          "value": 7.03000259
        },
        {
          "id": 1,
          "value": -0.0300002098
        },
        {
          "id": 2,
          "value": -0.64199996
        },
        {
          "id": 3,
          "value": 0.128999993
        },
        {
          "id": 4,
          "value": 0.0
        },
        {
          "id": 5,
          "value": 0.0
        },
        {
          "id": 6,
          "value": 0.0
        }
      ],
      "leftModuleId": 93,
      "rightModuleId": 102,
      "data": {
        "lastPath": "/Users/lorenasalome/Documents/DigMediaYorkU/VSL/extensions/Babe Ruth - The Mexican_01.wav",
        "oscstate": 0
      },
      "pos": [
        12,
        1
      ]
    },
    {
      "id": 92,
      "plugin": "cf",
      "version": "1.1.1",
      "model": "METRO",
      "params": [
        {
          "id": 0,
          "value": 222.138245
        },
        {
          "id": 1,
          "value": 0.0
        },
        {
          "id": 2,
          "value": 0.0
        },
        {
          "id": 3,
          "value": 0.0
        }
      ],
      "rightModuleId": 93,
      "data": {
        "onstate": 1
      },
      "pos": [
        0,
        1
      ]
    },
    {
      "id": 93,
      "plugin": "AudibleInstruments",
      "version": "1.0.0",
      "model": "Branches",
      "params": [
        {
          "id": 0,
          "value": 0.461999744
        },
        {
          "id": 1,
          "value": 0.480499625
        },
        {
          "id": 2,
          "value": 0.0
        },
        {
          "id": 3,
          "value": 0.0
        }
      ],
      "leftModuleId": 92,
      "rightModuleId": 91,
      "data": {
        "modes": [
          false,
          false
        ]
      },
      "pos": [
        6,
        1
      ]
    },
    {
      "id": 94,
      "plugin": "dBiz",
      "version": "1.1.2",
      "model": "TROSC",
      "params": [
        {
          "id": 0,
          "value": 0.0
        },
        {
          "id": 1,
          "value": 0.0
        },
        {
          "id": 2,
          "value": 1.0
        },
        {
          "id": 3,
          "value": 1.0
        },
        {
          "id": 4,
          "value": 1.0
        },
        {
          "id": 5,
          "value": 1.0
        },
        {
          "id": 6,
          "value": 1.0
        },
        {
          "id": 7,
          "value": 1.0
        },
        {
          "id": 8,
          "value": 0.0
        },
        {
          "id": 9,
          "value": 0.00600000005
        },
        {
          "id": 10,
          "value": 0.0
        },
        {
          "id": 11,
          "value": -50.5979958
        },
        {
          "id": 12,
          "value": 1.0
        },
        {
          "id": 13,
          "value": -0.864019573
        },
        {
          "id": 14,
          "value": -0.799999595
        },
        {
          "id": 15,
          "value": -49.7879829
        },
        {
          "id": 16,
          "value": 0.0
        },
        {
          "id": 17,
          "value": 0.0
        },
        {
          "id": 18,
          "value": 0.37500006
        },
        {
          "id": 19,
          "value": 0.0
        },
        {
          "id": 20,
          "value": 0.0
        },
        {
          "id": 21,
          "value": 0.983999968
        },
        {
          "id": 22,
          "value": 0.0
        },
        {
          "id": 23,
          "value": 0.0270000007
        },
        {
          "id": 24,
          "value": 0.0
        },
        {
          "id": 25,
          "value": 0.13800025
        },
        {
          "id": 26,
          "value": 0.165000394
        },
        {
          "id": 27,
          "value": 0.0
        },
        {
          "id": 28,
          "value": 0.0
        }
      ],
      "leftModuleId": 121,
      "rightModuleId": 117,
      "pos": [
        50,
        1
      ]
    },
    {
      "id": 98,
      "plugin": "Core",
      "version": "1.1.6",
      "model": "Notes",
      "params": [],
      "rightModuleId": 137,
      "text": "Get samples from:\nhttps://drive.google.com/drive/folders/1YALRSXczF1kN60_pYv3WVcbqCKxFDpYR?usp=sharing\n\nMETRO \n58\n\nPLAYER \nThe Mexican: start at 5.67\nYellow Sunshine: start at 1.29 \n- play around with the playback position\n\nLFO-1\nFREQ: 0.35527S\n- play with  UNI/BIs\n\n\ndBiz TROSC + MIDI-CV\nplay around with Osc2 Frequency and QWERTY keyboard\n\n  \n",
      "pos": [
        0,
        0
      ]
    },
    {
      "id": 100,
      "plugin": "dBiz",
      "version": "1.1.2",
      "model": "SPan",
      "params": [
        {
          "id": 0,
          "value": 1.0
        },
        {
          "id": 1,
          "value": 1.0
        },
        {
          "id": 2,
          "value": 0.493000031
        },
        {
          "id": 3,
          "value": 0.0
        },
        {
          "id": 4,
          "value": 0.761999846
        }
      ],
      "leftModuleId": 137,
      "rightModuleId": 47,
      "pos": [
        30,
        0
      ]
    },
    {
      "id": 101,
      "plugin": "Fundamental",
      "version": "1.4.0",
      "model": "LFO",
      "params": [
        {
          "id": 0,
          "value": 0.0
        },
        {
          "id": 1,
          "value": 0.0
        },
        {
          "id": 2,
          "value": 2.0889976
        },
        {
          "id": 3,
          "value": 0.0
        },
        {
          "id": 4,
          "value": 0.0
        },
        {
          "id": 5,
          "value": 0.00999999978
        },
        {
          "id": 6,
          "value": 0.0
        }
      ],
      "leftModuleId": 90,
      "rightModuleId": 135,
      "pos": [
        42,
        2
      ]
    },
    {
      "id": 102,
      "plugin": "cf",
      "version": "1.1.1",
      "model": "PLAYER",
      "params": [
        {
          "id": 0,
          "value": 4.15000248
        },
        {
          "id": 1,
          "value": -0.0100015998
        },
        {
          "id": 2,
          "value": -0.309000075
        },
        {
          "id": 3,
          "value": 0.128999993
        },
        {
          "id": 4,
          "value": 0.0
        },
        {
          "id": 5,
          "value": 0.0
        },
        {
          "id": 6,
          "value": 0.0
        }
      ],
      "leftModuleId": 91,
      "rightModuleId": 142,
      "data": {
        "lastPath": "/Users/lorenasalome/Documents/DigMediaYorkU/VSL/extensions/Yellow Sunshine - Yellow Sunshine (Audio)_01.wav",
        "oscstate": 0
      },
      "pos": [
        21,
        1
      ]
    },
    {
      "id": 107,
      "plugin": "cf",
      "version": "1.1.1",
      "model": "METRO",
      "params": [
        {
          "id": 0,
          "value": 104.748299
        },
        {
          "id": 1,
          "value": 0.0
        },
        {
          "id": 2,
          "value": 0.0
        },
        {
          "id": 3,
          "value": 0.0
        }
      ],
      "rightModuleId": 108,
      "data": {
        "onstate": 1
      },
      "pos": [
        0,
        2
      ]
    },
    {
      "id": 108,
      "plugin": "AudibleInstruments",
      "version": "1.0.0",
      "model": "Branches",
      "params": [
        {
          "id": 0,
          "value": 0.483999372
        },
        {
          "id": 1,
          "value": 0.479999185
        },
        {
          "id": 2,
          "value": 0.0
        },
        {
          "id": 3,
          "value": 0.0
        }
      ],
      "leftModuleId": 107,
      "rightModuleId": 89,
      "data": {
        "modes": [
          false,
          false
        ]
      },
      "pos": [
        6,
        2
      ]
    },
    {
      "id": 117,
      "plugin": "Fundamental",
      "version": "1.4.0",
      "model": "VCMixer",
      "params": [
        {
          "id": 0,
          "value": 1.04400051
        },
        {
          "id": 1,
          "value": 0.708520889
        },
        {
          "id": 2,
          "value": 0.793373823
        },
        {
          "id": 3,
          "value": 0.746704698
        },
        {
          "id": 4,
          "value": 0.784888685
        }
      ],
      "leftModuleId": 94,
      "pos": [
        72,
        1
      ]
    },
    {
      "id": 121,
      "plugin": "Alikins",
      "version": "1.0.1",
      "model": "BigMuteButton",
      "params": [
        {
          "id": 0,
          "value": 0.0
        }
      ],
      "leftModuleId": 129,
      "rightModuleId": 94,
      "pos": [
        44,
        1
      ]
    },
    {
      "id": 129,
      "plugin": "Alikins",
      "version": "1.0.1",
      "model": "BigMuteButton",
      "params": [
        {
          "id": 0,
          "value": 0.0
        }
      ],
      "leftModuleId": 142,
      "rightModuleId": 121,
      "pos": [
        38,
        1
      ]
    },
    {
      "id": 135,
      "plugin": "Core",
      "version": "1.1.6",
      "model": "Blank",
      "params": [],
      "bypass": true,
      "leftModuleId": 101,
      "rightModuleId": 84,
      "width": 165.0,
      "pos": [
        52,
        2
      ]
    },
    {
      "id": 136,
      "plugin": "Core",
      "version": "1.1.6",
      "model": "Blank",
      "params": [],
      "bypass": true,
      "leftModuleId": 84,
      "width": 165.0,
      "pos": [
        71,
        2
      ]
    },
    {
      "id": 137,
      "plugin": "Core",
      "version": "1.1.6",
      "model": "Blank",
      "params": [],
      "bypass": true,
      "leftModuleId": 98,
      "rightModuleId": 100,
      "width": 210.0,
      "pos": [
        16,
        0
      ]
    },
    {
      "id": 142,
      "plugin": "Fundamental",
      "version": "1.4.0",
      "model": "Mutes",
      "params": [
        {
          "id": 0,
          "value": 0.0
        },
        {
          "id": 1,
          "value": 0.0
        },
        {
          "id": 2,
          "value": 0.0
        },
        {
          "id": 3,
          "value": 0.0
        },
        {
          "id": 4,
          "value": 0.0
        },
        {
          "id": 5,
          "value": 0.0
        },
        {
          "id": 6,
          "value": 0.0
        },
        {
          "id": 7,
          "value": 0.0
        },
        {
          "id": 8,
          "value": 0.0
        },
        {
          "id": 9,
          "value": 0.0
        }
      ],
      "leftModuleId": 102,
      "rightModuleId": 129,
      "data": {
        "states": [
          true,
          true,
          true,
          true,
          false,
          false,
          false,
          false,
          false,
          false
        ]
      },
      "pos": [
        30,
        1
      ]
    },
    {
      "id": 144,
      "plugin": "Fundamental",
      "version": "1.4.0",
      "model": "Unity",
      "params": [
        {
          "id": 0,
          "value": 0.0
        },
        {
          "id": 1,
          "value": 0.0
        }
      ],
      "data": {
        "merge": false
      },
      "pos": [
        57,
        0
      ]
    },
    {
      "id": 146,
      "plugin": "VCV-Recorder",
      "version": "1.0.1",
      "model": "Recorder",
      "params": [
        {
          "id": 0,
          "value": 1.0
        },
        {
          "id": 1,
          "value": 0.0
        }
      ],
      "leftModuleId": 1,
      "data": {
        "format": "wav",
        "path": "/Users/lorenasalome/Documents/DigMediaYorkU/VSL/gitshow3/recording.wav",
        "incrementPath": false,
        "sampleRate": 44100,
        "depth": 16,
        "bitRate": 320000
      },
      "pos": [
        77,
        0
      ]
    }
  ],
  "cables": [
    {
      "id": 727,
      "outputModuleId": 92,
      "outputId": 2,
      "inputModuleId": 93,
      "inputId": 0,
      "color": "#c91847"
    },
    {
      "id": 730,
      "outputModuleId": 90,
      "outputId": 0,
      "inputModuleId": 91,
      "inputId": 0,
      "color": "#0c8e15"
    },
    {
      "id": 729,
      "outputModuleId": 93,
      "outputId": 0,
      "inputModuleId": 90,
      "inputId": 8,
      "color": "#c9b70e"
    },
    {
      "id": 782,
      "outputModuleId": 100,
      "outputId": 0,
      "inputModuleId": 47,
      "inputId": 0,
      "color": "#c9b70e"
    },
    {
      "id": 783,
      "outputModuleId": 100,
      "outputId": 1,
      "inputModuleId": 47,
      "inputId": 1,
      "color": "#0c8e15"
    },
    {
      "id": 797,
      "outputModuleId": 107,
      "outputId": 2,
      "inputModuleId": 108,
      "inputId": 0,
      "color": "#c91847"
    },
    {
      "id": 723,
      "outputModuleId": 92,
      "outputId": 3,
      "inputModuleId": 90,
      "inputId": 1,
      "color": "#c91847"
    },
    {
      "id": 724,
      "outputModuleId": 92,
      "outputId": 2,
      "inputModuleId": 90,
      "inputId": 2,
      "color": "#0986ad"
    },
    {
      "id": 726,
      "outputModuleId": 93,
      "outputId": 1,
      "inputModuleId": 90,
      "inputId": 18,
      "color": "#0c8e15"
    },
    {
      "id": 799,
      "outputModuleId": 108,
      "outputId": 0,
      "inputModuleId": 90,
      "inputId": 10,
      "color": "#c9b70e"
    },
    {
      "id": 864,
      "outputModuleId": 108,
      "outputId": 1,
      "inputModuleId": 90,
      "inputId": 20,
      "color": "#c9b70e"
    },
    {
      "id": 865,
      "outputModuleId": 108,
      "outputId": 3,
      "inputModuleId": 102,
      "inputId": 5,
      "color": "#0c8e15"
    },
    {
      "id": 779,
      "outputModuleId": 84,
      "outputId": 0,
      "inputModuleId": 100,
      "inputId": 10,
      "color": "#0986ad"
    },
    {
      "id": 902,
      "outputModuleId": 91,
      "outputId": 0,
      "inputModuleId": 100,
      "inputId": 8,
      "color": "#0986ad"
    },
    {
      "id": 903,
      "outputModuleId": 91,
      "outputId": 1,
      "inputModuleId": 100,
      "inputId": 9,
      "color": "#c9b70e"
    },
    {
      "id": 777,
      "outputModuleId": 101,
      "outputId": 1,
      "inputModuleId": 84,
      "inputId": 0,
      "color": "#0986ad"
    },
    {
      "id": 924,
      "outputModuleId": 89,
      "outputId": 1,
      "inputModuleId": 101,
      "inputId": 1,
      "color": "#0986ad"
    },
    {
      "id": 781,
      "outputModuleId": 94,
      "outputId": 1,
      "inputModuleId": 84,
      "inputId": 2,
      "color": "#0986ad"
    },
    {
      "id": 780,
      "outputModuleId": 101,
      "outputId": 0,
      "inputModuleId": 94,
      "inputId": 1,
      "color": "#c91847"
    },
    {
      "id": 930,
      "outputModuleId": 102,
      "outputId": 1,
      "inputModuleId": 142,
      "inputId": 3,
      "color": "#0986ad"
    },
    {
      "id": 925,
      "outputModuleId": 102,
      "outputId": 0,
      "inputModuleId": 142,
      "inputId": 2,
      "color": "#0c8e15"
    },
    {
      "id": 879,
      "outputModuleId": 100,
      "outputId": 0,
      "inputModuleId": 142,
      "inputId": 0,
      "color": "#0986ad"
    },
    {
      "id": 933,
      "outputModuleId": 142,
      "outputId": 1,
      "inputModuleId": 121,
      "inputId": 1,
      "color": "#0986ad"
    },
    {
      "id": 934,
      "outputModuleId": 142,
      "outputId": 0,
      "inputModuleId": 121,
      "inputId": 0,
      "color": "#0c8e15"
    },
    {
      "id": 935,
      "outputModuleId": 142,
      "outputId": 3,
      "inputModuleId": 129,
      "inputId": 1,
      "color": "#c91847"
    },
    {
      "id": 863,
      "outputModuleId": 90,
      "outputId": 0,
      "inputModuleId": 102,
      "inputId": 0,
      "color": "#0986ad"
    },
    {
      "id": 932,
      "outputModuleId": 142,
      "outputId": 2,
      "inputModuleId": 129,
      "inputId": 0,
      "color": "#0c8e15"
    },
    {
      "id": 958,
      "outputModuleId": 129,
      "outputId": 0,
      "inputModuleId": 117,
      "inputId": 1,
      "color": "#0c8e15"
    },
    {
      "id": 959,
      "outputModuleId": 129,
      "outputId": 1,
      "inputModuleId": 117,
      "inputId": 2,
      "color": "#c91847"
    },
    {
      "id": 956,
      "outputModuleId": 121,
      "outputId": 0,
      "inputModuleId": 117,
      "inputId": 3,
      "color": "#0986ad"
    },
    {
      "id": 957,
      "outputModuleId": 121,
      "outputId": 1,
      "inputModuleId": 117,
      "inputId": 4,
      "color": "#c9b70e"
    },
    {
      "id": 878,
      "outputModuleId": 100,
      "outputId": 1,
      "inputModuleId": 142,
      "inputId": 1,
      "color": "#c91847"
    },
    {
      "id": 917,
      "outputModuleId": 89,
      "outputId": 1,
      "inputModuleId": 101,
      "inputId": 0,
      "color": "#c91847"
    },
    {
      "id": 966,
      "outputModuleId": 117,
      "outputId": 3,
      "inputModuleId": 144,
      "inputId": 0,
      "color": "#0c8e15"
    },
    {
      "id": 967,
      "outputModuleId": 117,
      "outputId": 4,
      "inputModuleId": 144,
      "inputId": 1,
      "color": "#c91847"
    },
    {
      "id": 964,
      "outputModuleId": 117,
      "outputId": 1,
      "inputModuleId": 144,
      "inputId": 2,
      "color": "#0986ad"
    },
    {
      "id": 965,
      "outputModuleId": 117,
      "outputId": 2,
      "inputModuleId": 144,
      "inputId": 3,
      "color": "#c9b70e"
    },
    {
      "id": 975,
      "outputModuleId": 144,
      "outputId": 0,
      "inputModuleId": 1,
      "inputId": 0,
      "color": "#0c8e15"
    },
    {
      "id": 977,
      "outputModuleId": 144,
      "outputId": 0,
      "inputModuleId": 1,
      "inputId": 1,
      "color": "#0986ad"
    },
    {
      "id": 983,
      "outputModuleId": 144,
      "outputId": 0,
      "inputModuleId": 146,
      "inputId": 2,
      "color": "#c9b70e"
    },
    {
      "id": 984,
      "outputModuleId": 144,
      "outputId": 0,
      "inputModuleId": 146,
      "inputId": 3,
      "color": "#0c8e15"
    },
    {
      "id": 735,
      "outputModuleId": 93,
      "outputId": 3,
      "inputModuleId": 91,
      "inputId": 5,
      "color": "#0c8e15"
    }
  ]
}