{
  "version": "1.1.6",
  "modules": [
    {
      "id": 1,
      "plugin": "Core",
      "version": "1.1.6",
      "model": "AudioInterface",
      "params": [],
      "leftModuleId": 35,
      "rightModuleId": 8,
      "data": {
        "audio": {
          "driver": 5,
          "deviceName": "Apple Inc.: External Headphones",
          "offset": 0,
          "maxChannels": 8,
          "sampleRate": 44100,
          "blockSize": 256
        }
      },
      "pos": [
        80,
        0
      ]
    },
    {
      "id": 2,
      "plugin": "Fundamental",
      "version": "1.4.0",
      "model": "VCMixer",
      "params": [
        {
          "id": 0,
          "value": 0.960000277
        },
        {
          "id": 1,
          "value": 1.0
        },
        {
          "id": 2,
          "value": 1.0
        },
        {
          "id": 3,
          "value": 1.0
        },
        {
          "id": 4,
          "value": 0.981464267
        }
      ],
      "leftModuleId": 44,
      "rightModuleId": 35,
      "pos": [
        60,
        0
      ]
    },
    {
      "id": 8,
      "plugin": "Core",
      "version": "1.1.6",
      "model": "Notes",
      "params": [],
      "leftModuleId": 1,
      "text": "patch instructions:\n\n1. Choose an audio driver and device in the AUDIO-8 module.\n\n2. Drag knobs up/down. Hold Ctrl (Cmd on Mac) while dragging to fine-tune. Right-click knobs to edit, or double-click to initialize.\n\n3. Drag ports to create and move 3ables. Stack multiple cables on outputs by holding Ctrl (Cmd on Mac) and dragging from an output.\n\n4. Right-click on an empty rack space to add new modules.",
      "pos": [
        90,
        0
      ]
    },
    {
      "id": 17,
      "plugin": "VCV-Prototype",
      "version": "1.2.0",
      "model": "Prototype",
      "params": [
        {
          "id": 0,
          "value": 0.556500077
        },
        {
          "id": 1,
          "value": 0.558000088
        },
        {
          "id": 2,
          "value": 0.0
        },
        {
          "id": 3,
          "value": 0.0
        },
        {
          "id": 4,
          "value": 0.469500035
        },
        {
          "id": 5,
          "value": 0.0
        },
        {
          "id": 6,
          "value": 0.0
        },
        {
          "id": 7,
          "value": 0.0
        },
        {
          "id": 8,
          "value": 0.0
        },
        {
          "id": 9,
          "value": 0.0
        },
        {
          "id": 10,
          "value": 0.0
        },
        {
          "id": 11,
          "value": 0.0
        }
      ],
      "leftModuleId": 39,
      "data": {
        "path": "/Users/audiobeing/gitshow3/module3.js",
        "script": "// module3.js is a gate sequencer, which takes as its only input a signal. It compares the input \tsignal amplitude against 6 logical conditions, and sends a gate out of one of the 6 outputs. \n\n// Inputs: IN1\n// Outputs: OUT1, OUT2, OUT3, OUT4, OUT5, OUT6\n\n\nconfig.frameDivider = 1\nconfig.bufferSize = 16\n\nvar phase = 0\n\nfunction step(step){\n\tdisplay('output: ' + step)\n}\n\nfunction process(block) {\t\n\t// Set all samples in output buffer\n\tfor (var i = 0; i < block.bufferSize; i++) {\n\t\t// IN1: signal input value ranges 0-10, and is thus tested against the switch case below\n\t\tlet switcher = Math.floor(block.inputs[0][i])\n\t\tswitch (switcher){\n\t\t\t// output 0\n\t\t\tcase 0:\n\t\t\t\t\tstep(0)\n\t\t\t\t\tblock.outputs[0][i] = 20\n\t\t\t\t\tblock.outputs[1][i] = 10\n\t\t\t\t\tblock.outputs[2][i] = 0\n\t\t\t\t\tblock.outputs[3][i] = 1 \n\t\t\t\t\tblock.outputs[4][i] = 10\n\t\t\t\t\tblock.outputs[5][i] = 0\n\t\t\tbreak;\n\t\t\t// output 1\n\t\t\tcase 1:\n\t\t\tcase 2:\n\t\t\t\t\tstep(1)\n\t\t\t\t\tblock.outputs[0][i] = 0\n\t\t\t\t\tblock.outputs[1][i] = 10\n\t\t\t\t\tblock.outputs[2][i] = 0\n\t\t\t\t\tblock.outputs[3][i] = 0\n\t\t\t\t\tblock.outputs[4][i] = 0\n\t\t\t\t\tblock.outputs[5][i] = 0\n\t\t\tbreak;\n\n\t\t\t// output 2\n\t\t\tcase 3:\n\t\t\t\tstep(3)\n\t\t\t\tblock.outputs[0][i] = 10\n\t\t\t\tblock.outputs[5][i] = 10\n\t\t\tcase 4:\n\t\t\t\t\tstep(2)\n\t\t\t\t\tblock.outputs[0][i] = 0\n\t\t\t\t\tblock.outputs[1][i] = 0\n\t\t\t\t\tblock.outputs[2][i] = 10\n\t\t\t\t\tblock.outputs[3][i] = 0\n\t\t\t\t\tblock.outputs[4][i] = 0\n\t\t\t\t\tblock.outputs[5][i] = 0\n\t\t\tbreak;\n\t\t\t// output 3\t\t\t\n\t\t\tcase 5:\n\t\t\tcase 6:\n\t\t\t\tstep(3)\n\t\t\t\tblock.outputs[0][i] = 0\n\t\t\t\tblock.outputs[1][i] = 0\n\t\t\t\tblock.outputs[2][i] = 0\n\t\t\t\tblock.outputs[3][i] = 10\n\t\t\t\tblock.outputs[4][i] = 0\n\t\t\t\tblock.outputs[5][i] = 0\n\t\t\tbreak;\n\t\t\t// output 4\n\t\t\tcase 7:\n\t\t\tcase 8:\n\t\t\t\t\tstep(4)\n\t\t\t\t\tblock.outputs[0][i] = 0\n\t\t\t\t\tblock.outputs[1][i] = 10\n\t\t\t\t\tblock.outputs[2][i] = 0\n\t\t\t\t\tblock.outputs[3][i] = 0\n\t\t\t\t\tblock.outputs[4][i] = 10\n\t\t\t\t\tblock.outputs[5][i] = 0\n\t\t\tbreak;\n\t\t\t// output 5\n\t\t\tcase 9:\n\t\t\t\t\tstep(5)\n\t\t\t\t\tblock.outputs[0][i] = 0\n\t\t\t\t\tblock.outputs[1][i] = rand(11); \n\t\t\t\t\tblock.outputs[2][i] = 10\n\t\t\t\t\tblock.outputs[3][i] = 0\n\t\t\t\t\tblock.outputs[4][i] = 0\n\t\t\t\t\tblock.outputs[5][i] = rand(10)\n\t\t\tbreak;\t\t\t\t\n\t\t}\n\t} \n\t\n\n}\n\nfunction rand(n){\n\treturn Math.floor(Math.random(n)); \n}\n"
      },
      "pos": [
        16,
        0
      ]
    },
    {
      "id": 23,
      "plugin": "Core",
      "version": "1.1.6",
      "model": "Notes",
      "params": [],
      "text": "recording! this little module simplifies things so we don't have to use jack+daw\n\nremember to save the recording to the git repo, but don't let it be larger than 20MB~",
      "pos": [
        82,
        1
      ]
    },
    {
      "id": 28,
      "plugin": "Fundamental",
      "version": "1.4.0",
      "model": "LFO",
      "params": [
        {
          "id": 0,
          "value": 1.0
        },
        {
          "id": 1,
          "value": 0.0
        },
        {
          "id": 2,
          "value": 5.39202023
        },
        {
          "id": 3,
          "value": 0.319500238
        },
        {
          "id": 4,
          "value": 0.546000242
        },
        {
          "id": 5,
          "value": 0.352509916
        },
        {
          "id": 6,
          "value": 0.635999978
        }
      ],
      "rightModuleId": 39,
      "pos": [
        0,
        0
      ]
    },
    {
      "id": 35,
      "plugin": "Fundamental",
      "version": "1.4.0",
      "model": "VCMixer",
      "params": [
        {
          "id": 0,
          "value": 0.891000748
        },
        {
          "id": 1,
          "value": 1.0
        },
        {
          "id": 2,
          "value": 1.0
        },
        {
          "id": 3,
          "value": 1.0
        },
        {
          "id": 4,
          "value": 1.0
        }
      ],
      "leftModuleId": 2,
      "rightModuleId": 1,
      "pos": [
        70,
        0
      ]
    },
    {
      "id": 36,
      "plugin": "AudibleInstruments",
      "version": "1.0.0",
      "model": "Rings",
      "params": [
        {
          "id": 0,
          "value": 0.0
        },
        {
          "id": 1,
          "value": 0.0
        },
        {
          "id": 2,
          "value": 18.0599537
        },
        {
          "id": 3,
          "value": 0.278001726
        },
        {
          "id": 4,
          "value": 0.681500196
        },
        {
          "id": 5,
          "value": 0.768999875
        },
        {
          "id": 6,
          "value": 0.44299981
        },
        {
          "id": 7,
          "value": -0.524999857
        },
        {
          "id": 8,
          "value": 0.0
        },
        {
          "id": 9,
          "value": -0.419999987
        },
        {
          "id": 10,
          "value": 0.256000191
        },
        {
          "id": 11,
          "value": -0.0560000837
        }
      ],
      "rightModuleId": 37,
      "data": {
        "polyphony": 0,
        "model": 0,
        "easterEgg": false
      },
      "pos": [
        30,
        1
      ]
    },
    {
      "id": 37,
      "plugin": "AudibleInstruments",
      "version": "1.0.0",
      "model": "Rings",
      "params": [
        {
          "id": 0,
          "value": 0.0
        },
        {
          "id": 1,
          "value": 0.0
        },
        {
          "id": 2,
          "value": 7.22995281
        },
        {
          "id": 3,
          "value": 0.162502244
        },
        {
          "id": 4,
          "value": 0.383000433
        },
        {
          "id": 5,
          "value": 0.271000028
        },
        {
          "id": 6,
          "value": 0.255499721
        },
        {
          "id": 7,
          "value": 0.0
        },
        {
          "id": 8,
          "value": 0.0
        },
        {
          "id": 9,
          "value": -0.360000134
        },
        {
          "id": 10,
          "value": 0.011000026
        },
        {
          "id": 11,
          "value": 0.186000019
        }
      ],
      "leftModuleId": 36,
      "data": {
        "polyphony": 2,
        "model": 1,
        "easterEgg": false
      },
      "pos": [
        44,
        1
      ]
    },
    {
      "id": 39,
      "plugin": "Fundamental",
      "version": "1.4.0",
      "model": "LFO2",
      "params": [
        {
          "id": 0,
          "value": 0.0
        },
        {
          "id": 1,
          "value": 0.0
        },
        {
          "id": 2,
          "value": 5.95502472
        },
        {
          "id": 3,
          "value": 0.581999838
        },
        {
          "id": 4,
          "value": 0.291500628
        }
      ],
      "leftModuleId": 28,
      "rightModuleId": 17,
      "pos": [
        10,
        0
      ]
    },
    {
      "id": 41,
      "plugin": "DrumKit",
      "version": "1.1.2",
      "model": "BassDrum9",
      "params": [
        {
          "id": 0,
          "value": 4.0
        },
        {
          "id": 1,
          "value": 0.0
        },
        {
          "id": 2,
          "value": 0.0
        },
        {
          "id": 3,
          "value": 0.0
        },
        {
          "id": 4,
          "value": 0.0
        },
        {
          "id": 5,
          "value": 0.0
        },
        {
          "id": 6,
          "value": 0.0
        },
        {
          "id": 7,
          "value": 0.0
        },
        {
          "id": 8,
          "value": 0.0
        },
        {
          "id": 9,
          "value": 0.0
        },
        {
          "id": 10,
          "value": 0.0
        },
        {
          "id": 11,
          "value": 0.0
        },
        {
          "id": 12,
          "value": 0.0
        },
        {
          "id": 13,
          "value": 0.0
        },
        {
          "id": 14,
          "value": 0.0
        },
        {
          "id": 15,
          "value": 0.0
        },
        {
          "id": 16,
          "value": 1.29119968
        },
        {
          "id": 17,
          "value": 0.200000003
        },
        {
          "id": 18,
          "value": 0.0
        },
        {
          "id": 19,
          "value": 0.0
        },
        {
          "id": 20,
          "value": 0.0
        },
        {
          "id": 21,
          "value": 0.0
        },
        {
          "id": 22,
          "value": 0.0
        },
        {
          "id": 23,
          "value": 0.0
        },
        {
          "id": 24,
          "value": 0.0
        },
        {
          "id": 25,
          "value": 0.0
        },
        {
          "id": 26,
          "value": 0.0
        },
        {
          "id": 27,
          "value": 0.0
        },
        {
          "id": 28,
          "value": 0.0
        },
        {
          "id": 29,
          "value": 0.0
        },
        {
          "id": 30,
          "value": 0.0
        },
        {
          "id": 31,
          "value": 0.0
        }
      ],
      "rightModuleId": 43,
      "pos": [
        7,
        1
      ]
    },
    {
      "id": 43,
      "plugin": "DrumKit",
      "version": "1.1.2",
      "model": "OpenHiHat",
      "params": [
        {
          "id": 0,
          "value": 3.0
        },
        {
          "id": 1,
          "value": 8.0
        },
        {
          "id": 2,
          "value": 0.0
        },
        {
          "id": 3,
          "value": 0.0
        },
        {
          "id": 4,
          "value": 0.0
        },
        {
          "id": 5,
          "value": 0.0
        },
        {
          "id": 6,
          "value": 0.0
        },
        {
          "id": 7,
          "value": 0.0
        },
        {
          "id": 8,
          "value": 0.0
        },
        {
          "id": 9,
          "value": 0.0
        },
        {
          "id": 10,
          "value": 0.0
        },
        {
          "id": 11,
          "value": 0.0
        },
        {
          "id": 12,
          "value": 0.0
        },
        {
          "id": 13,
          "value": 0.0
        },
        {
          "id": 14,
          "value": 0.0
        },
        {
          "id": 15,
          "value": 0.0
        },
        {
          "id": 16,
          "value": 0.200000003
        },
        {
          "id": 17,
          "value": 1.06639946
        },
        {
          "id": 18,
          "value": 0.0
        },
        {
          "id": 19,
          "value": 0.0
        },
        {
          "id": 20,
          "value": 0.0
        },
        {
          "id": 21,
          "value": 0.0
        },
        {
          "id": 22,
          "value": 0.0
        },
        {
          "id": 23,
          "value": 0.0
        },
        {
          "id": 24,
          "value": 0.0
        },
        {
          "id": 25,
          "value": 0.0
        },
        {
          "id": 26,
          "value": 0.0
        },
        {
          "id": 27,
          "value": 0.0
        },
        {
          "id": 28,
          "value": 0.0
        },
        {
          "id": 29,
          "value": 0.0
        },
        {
          "id": 30,
          "value": 0.0
        },
        {
          "id": 31,
          "value": 0.0
        },
        {
          "id": 32,
          "value": 0.0565497056
        },
        {
          "id": 33,
          "value": 0.334650248
        },
        {
          "id": 34,
          "value": 0.0
        },
        {
          "id": 35,
          "value": 0.0
        },
        {
          "id": 36,
          "value": 0.0
        },
        {
          "id": 37,
          "value": 0.0
        },
        {
          "id": 38,
          "value": 0.0
        },
        {
          "id": 39,
          "value": 0.0
        },
        {
          "id": 40,
          "value": 0.0
        },
        {
          "id": 41,
          "value": 0.0
        },
        {
          "id": 42,
          "value": 0.0
        },
        {
          "id": 43,
          "value": 0.0
        },
        {
          "id": 44,
          "value": 0.0
        },
        {
          "id": 45,
          "value": 0.0
        },
        {
          "id": 46,
          "value": 0.0
        },
        {
          "id": 47,
          "value": 0.0
        },
        {
          "id": 48,
          "value": 0.0
        },
        {
          "id": 49,
          "value": 0.0
        }
      ],
      "leftModuleId": 41,
      "pos": [
        13,
        1
      ]
    },
    {
      "id": 45,
      "plugin": "DrumKit",
      "version": "1.1.2",
      "model": "CR78",
      "params": [
        {
          "id": 0,
          "value": 0.0
        },
        {
          "id": 1,
          "value": 1.0
        },
        {
          "id": 2,
          "value": 0.0
        },
        {
          "id": 3,
          "value": 0.0
        },
        {
          "id": 4,
          "value": 0.0
        },
        {
          "id": 5,
          "value": 0.0
        },
        {
          "id": 6,
          "value": 0.0
        },
        {
          "id": 7,
          "value": 0.0
        },
        {
          "id": 8,
          "value": 0.0
        },
        {
          "id": 9,
          "value": 0.0
        },
        {
          "id": 10,
          "value": 0.0
        },
        {
          "id": 11,
          "value": 0.0
        },
        {
          "id": 12,
          "value": 0.0
        },
        {
          "id": 13,
          "value": 0.0
        },
        {
          "id": 14,
          "value": 0.0
        },
        {
          "id": 15,
          "value": 0.0
        },
        {
          "id": 16,
          "value": 0.200000003
        },
        {
          "id": 17,
          "value": 0.200000003
        },
        {
          "id": 18,
          "value": 0.0
        },
        {
          "id": 19,
          "value": 0.0
        },
        {
          "id": 20,
          "value": 0.0
        },
        {
          "id": 21,
          "value": 0.0
        },
        {
          "id": 22,
          "value": 0.0
        },
        {
          "id": 23,
          "value": 0.0
        },
        {
          "id": 24,
          "value": 0.0
        },
        {
          "id": 25,
          "value": 0.0
        },
        {
          "id": 26,
          "value": 0.0
        },
        {
          "id": 27,
          "value": 0.0
        },
        {
          "id": 28,
          "value": 0.0
        },
        {
          "id": 29,
          "value": 0.0
        },
        {
          "id": 30,
          "value": 0.0
        },
        {
          "id": 31,
          "value": 0.0
        }
      ],
      "pos": [
        63,
        1
      ]
    },
    {
      "id": 44,
      "plugin": "VCV-Recorder",
      "version": "1.0.1",
      "model": "Recorder",
      "params": [
        {
          "id": 0,
          "value": 0.273000777
        },
        {
          "id": 1,
          "value": 0.0
        }
      ],
      "rightModuleId": 2,
      "data": {
        "format": "wav",
        "path": "/Users/audiobeing/gitshow3/recording3.wav",
        "incrementPath": true,
        "sampleRate": 44100,
        "depth": 16,
        "bitRate": 320000
      },
      "pos": [
        55,
        0
      ]
    },
    {
      "id": 38,
      "plugin": "Befaco",
      "version": "1.0.0",
      "model": "Rampage",
      "params": [
        {
          "id": 0,
          "value": 1.0
        },
        {
          "id": 1,
          "value": 1.0
        },
        {
          "id": 2,
          "value": -0.90899992
        },
        {
          "id": 3,
          "value": 0.835000217
        },
        {
          "id": 4,
          "value": 0.0
        },
        {
          "id": 5,
          "value": 0.0
        },
        {
          "id": 6,
          "value": 0.0390000008
        },
        {
          "id": 7,
          "value": 0.10000027
        },
        {
          "id": 8,
          "value": 0.0
        },
        {
          "id": 9,
          "value": 0.00300000003
        },
        {
          "id": 10,
          "value": 1.0
        },
        {
          "id": 11,
          "value": 1.0
        },
        {
          "id": 12,
          "value": 0.494499832
        }
      ],
      "pos": [
        34,
        0
      ]
    }
  ],
  "cables": [
    {
      "id": 349,
      "outputModuleId": 2,
      "outputId": 0,
      "inputModuleId": 1,
      "inputId": 0,
      "color": "#0986ad"
    },
    {
      "id": 367,
      "outputModuleId": 35,
      "outputId": 0,
      "inputModuleId": 1,
      "inputId": 1,
      "color": "#c91847"
    },
    {
      "id": 411,
      "outputModuleId": 2,
      "outputId": 0,
      "inputModuleId": 44,
      "inputId": 2,
      "color": "#0986ad"
    },
    {
      "id": 429,
      "outputModuleId": 28,
      "outputId": 2,
      "inputModuleId": 39,
      "inputId": 2,
      "color": "#c9b70e"
    },
    {
      "id": 396,
      "outputModuleId": 28,
      "outputId": 1,
      "inputModuleId": 39,
      "inputId": 0,
      "color": "#0c8e15"
    },
    {
      "id": 418,
      "outputModuleId": 28,
      "outputId": 1,
      "inputModuleId": 17,
      "inputId": 0,
      "color": "#0c8e15"
    },
    {
      "id": 403,
      "outputModuleId": 43,
      "outputId": 1,
      "inputModuleId": 2,
      "inputId": 4,
      "color": "#c91847"
    },
    {
      "id": 412,
      "outputModuleId": 35,
      "outputId": 0,
      "inputModuleId": 44,
      "inputId": 3,
      "color": "#c9b70e"
    },
    {
      "id": 436,
      "outputModuleId": 2,
      "outputId": 1,
      "inputModuleId": 45,
      "inputId": 0,
      "color": "#c9b70e"
    },
    {
      "id": 433,
      "outputModuleId": 45,
      "outputId": 1,
      "inputModuleId": 35,
      "inputId": 4,
      "color": "#0986ad"
    },
    {
      "id": 380,
      "outputModuleId": 37,
      "outputId": 0,
      "inputModuleId": 2,
      "inputId": 2,
      "color": "#c9b70e"
    },
    {
      "id": 381,
      "outputModuleId": 37,
      "outputId": 1,
      "inputModuleId": 35,
      "inputId": 1,
      "color": "#0c8e15"
    },
    {
      "id": 428,
      "outputModuleId": 37,
      "outputId": 0,
      "inputModuleId": 2,
      "inputId": 8,
      "color": "#0c8e15"
    },
    {
      "id": 377,
      "outputModuleId": 36,
      "outputId": 1,
      "inputModuleId": 35,
      "inputId": 2,
      "color": "#c9b70e"
    },
    {
      "id": 376,
      "outputModuleId": 36,
      "outputId": 0,
      "inputModuleId": 2,
      "inputId": 1,
      "color": "#0986ad"
    },
    {
      "id": 440,
      "outputModuleId": 39,
      "outputId": 0,
      "inputModuleId": 36,
      "inputId": 7,
      "color": "#0c8e15"
    },
    {
      "id": 413,
      "outputModuleId": 28,
      "outputId": 1,
      "inputModuleId": 36,
      "inputId": 0,
      "color": "#0986ad"
    },
    {
      "id": 430,
      "outputModuleId": 43,
      "outputId": 1,
      "inputModuleId": 36,
      "inputId": 6,
      "color": "#0c8e15"
    },
    {
      "id": 374,
      "outputModuleId": 17,
      "outputId": 0,
      "inputModuleId": 36,
      "inputId": 5,
      "color": "#0c8e15"
    },
    {
      "id": 375,
      "outputModuleId": 17,
      "outputId": 1,
      "inputModuleId": 37,
      "inputId": 5,
      "color": "#c91847"
    },
    {
      "id": 432,
      "outputModuleId": 17,
      "outputId": 2,
      "inputModuleId": 45,
      "inputId": 17,
      "color": "#c91847"
    },
    {
      "id": 406,
      "outputModuleId": 17,
      "outputId": 3,
      "inputModuleId": 43,
      "inputId": 17,
      "color": "#c91847"
    },
    {
      "id": 423,
      "outputModuleId": 28,
      "outputId": 3,
      "inputModuleId": 43,
      "inputId": 32,
      "color": "#0986ad"
    },
    {
      "id": 398,
      "outputModuleId": 41,
      "outputId": 0,
      "inputModuleId": 2,
      "inputId": 3,
      "color": "#0986ad"
    },
    {
      "id": 415,
      "outputModuleId": 28,
      "outputId": 0,
      "inputModuleId": 41,
      "inputId": 16,
      "color": "#c91847"
    },
    {
      "id": 422,
      "outputModuleId": 28,
      "outputId": 0,
      "inputModuleId": 38,
      "inputId": 0,
      "color": "#c91847"
    },
    {
      "id": 437,
      "outputModuleId": 43,
      "outputId": 1,
      "inputModuleId": 38,
      "inputId": 1,
      "color": "#c91847"
    },
    {
      "id": 438,
      "outputModuleId": 38,
      "outputId": 10,
      "inputModuleId": 36,
      "inputId": 2,
      "color": "#0986ad"
    },
    {
      "id": 439,
      "outputModuleId": 38,
      "outputId": 9,
      "inputModuleId": 43,
      "inputId": 65,
      "color": "#c9b70e"
    },
    {
      "id": 435,
      "outputModuleId": 38,
      "outputId": 3,
      "inputModuleId": 43,
      "inputId": 64,
      "color": "#0c8e15"
    },
    {
      "id": 426,
      "outputModuleId": 38,
      "outputId": 1,
      "inputModuleId": 37,
      "inputId": 1,
      "color": "#0986ad"
    },
    {
      "id": 427,
      "outputModuleId": 38,
      "outputId": 2,
      "inputModuleId": 37,
      "inputId": 2,
      "color": "#c9b70e"
    },
    {
      "id": 416,
      "outputModuleId": 38,
      "outputId": 2,
      "inputModuleId": 36,
      "inputId": 1,
      "color": "#0986ad"
    },
    {
      "id": 424,
      "outputModuleId": 43,
      "outputId": 0,
      "inputModuleId": 38,
      "inputId": 8,
      "color": "#c9b70e"
    }
  ]
}