{
  "version": "1.1.6",
  "modules": [
    {
      "id": 47,
      "plugin": "Fundamental",
      "version": "1.4.0",
      "model": "Scope",
      "params": [
        {
          "id": 0,
          "value": -2.0
        },
        {
          "id": 1,
          "value": 0.0
        },
        {
          "id": 2,
          "value": -1.0
        },
        {
          "id": 3,
          "value": 0.0
        },
        {
          "id": 4,
          "value": 6.0
        },
        {
          "id": 5,
          "value": 0.0
        },
        {
          "id": 6,
          "value": 0.0
        },
        {
          "id": 7,
          "value": 0.0
        }
      ],
      "data": {
        "lissajous": 0,
        "external": 0
      },
      "pos": [
        52,
        0
      ]
    },
    {
      "id": 78,
      "plugin": "VCV-Recorder",
      "version": "1.0.1",
      "model": "Recorder",
      "params": [
        {
          "id": 0,
          "value": 1.50699985
        },
        {
          "id": 1,
          "value": 0.0
        }
      ],
      "leftModuleId": 1,
      "data": {
        "format": "wav",
        "path": "/Users/magfoto/Library/Mobile Documents/com~apple~CloudDocs/York U - PhD Study/_courses/DIGM 6020 - Vertical Studio Lab II/gitshow3/recording.wav",
        "incrementPath": false,
        "sampleRate": 44100,
        "depth": 16,
        "bitRate": 320000
      },
      "pos": [
        107,
        1
      ]
    },
    {
      "id": 1,
      "plugin": "Core",
      "version": "1.1.6",
      "model": "AudioInterface",
      "params": [],
      "leftModuleId": 99,
      "rightModuleId": 78,
      "data": {
        "audio": {
          "driver": 6,
          "deviceName": "Speakers (Realtek(R) Audio)",
          "offset": 0,
          "maxChannels": 8,
          "sampleRate": 48000,
          "blockSize": 256
        }
      },
      "pos": [
        97,
        1
      ]
    },
    {
      "id": 83,
      "plugin": "Befaco",
      "version": "1.0.0",
      "model": "DualAtenuverter",
      "params": [
        {
          "id": 0,
          "value": -1.0
        },
        {
          "id": 1,
          "value": -10.0
        },
        {
          "id": 2,
          "value": 0.35199976
        },
        {
          "id": 3,
          "value": 10.0
        }
      ],
      "rightModuleId": 85,
      "pos": [
        70,
        0
      ]
    },
    {
      "id": 84,
      "plugin": "cf",
      "version": "1.1.1",
      "model": "DISTO",
      "params": [
        {
          "id": 0,
          "value": 7.39000654
        },
        {
          "id": 1,
          "value": 3.46000171
        }
      ],
      "pos": [
        63,
        2
      ]
    },
    {
      "id": 85,
      "plugin": "cf",
      "version": "1.1.1",
      "model": "STEPS",
      "params": [
        {
          "id": 0,
          "value": 18.7019997
        },
        {
          "id": 1,
          "value": 0.0
        }
      ],
      "leftModuleId": 83,
      "pos": [
        75,
        0
      ]
    },
    {
      "id": 89,
      "plugin": "Core",
      "version": "1.1.6",
      "model": "MIDIToCVInterface",
      "params": [],
      "rightModuleId": 91,
      "data": {
        "channels": 1,
        "polyMode": 0,
        "clockDivision": 24,
        "lastPitch": 8192,
        "lastMod": 0,
        "midi": {
          "driver": -11,
          "deviceName": "QWERTY keyboard (US)",
          "channel": -1
        }
      },
      "pos": [
        47,
        1
      ]
    },
    {
      "id": 90,
      "plugin": "cf",
      "version": "1.1.1",
      "model": "trSEQ",
      "params": [
        {
          "id": 0,
          "value": 1.84399974
        },
        {
          "id": 1,
          "value": 0.0
        },
        {
          "id": 2,
          "value": 0.0
        },
        {
          "id": 3,
          "value": 0.0
        },
        {
          "id": 4,
          "value": 0.0
        },
        {
          "id": 5,
          "value": 16.0
        },
        {
          "id": 6,
          "value": 0.0
        },
        {
          "id": 7,
          "value": 0.0
        },
        {
          "id": 8,
          "value": 0.0
        },
        {
          "id": 9,
          "value": 0.0
        },
        {
          "id": 10,
          "value": 0.0
        },
        {
          "id": 11,
          "value": 0.0
        },
        {
          "id": 12,
          "value": 0.0
        },
        {
          "id": 13,
          "value": 0.0
        },
        {
          "id": 14,
          "value": 0.0
        },
        {
          "id": 15,
          "value": 0.0
        },
        {
          "id": 16,
          "value": 0.0
        },
        {
          "id": 17,
          "value": 0.0
        },
        {
          "id": 18,
          "value": 0.0
        },
        {
          "id": 19,
          "value": 0.0
        },
        {
          "id": 20,
          "value": 0.0
        },
        {
          "id": 21,
          "value": 0.0
        },
        {
          "id": 22,
          "value": 0.0
        },
        {
          "id": 23,
          "value": 0.0
        },
        {
          "id": 24,
          "value": 0.0
        },
        {
          "id": 25,
          "value": 0.0
        },
        {
          "id": 26,
          "value": 0.0
        },
        {
          "id": 27,
          "value": 0.0
        },
        {
          "id": 28,
          "value": 0.0
        },
        {
          "id": 29,
          "value": 0.0
        },
        {
          "id": 30,
          "value": 0.0
        },
        {
          "id": 31,
          "value": 0.0
        },
        {
          "id": 32,
          "value": 0.0
        },
        {
          "id": 33,
          "value": 0.0
        },
        {
          "id": 34,
          "value": 0.0
        },
        {
          "id": 35,
          "value": 0.0
        },
        {
          "id": 36,
          "value": 0.0
        }
      ],
      "data": {
        "running": true,
        "gates": [
          0,
          0,
          0,
          0,
          0,
          0,
          0,
          0,
          0,
          0,
          0,
          0,
          0,
          0,
          0,
          0
        ],
        "gateMode": 0
      },
      "pos": [
        17,
        1
      ]
    },
    {
      "id": 91,
      "plugin": "cf",
      "version": "1.1.1",
      "model": "PLAYER",
      "params": [
        {
          "id": 0,
          "value": 5.67000389
        },
        {
          "id": 1,
          "value": 0.0599997342
        },
        {
          "id": 2,
          "value": -0.0269999262
        },
        {
          "id": 3,
          "value": 0.128999993
        },
        {
          "id": 4,
          "value": 0.0
        },
        {
          "id": 5,
          "value": 0.0
        },
        {
          "id": 6,
          "value": 0.0
        }
      ],
      "leftModuleId": 89,
      "data": {
        "lastPath": "C:\\dispersion-lab\\gitshow3\\samples\\Babe Ruth - The Mexican_01.wav",
        "oscstate": 0
      },
      "pos": [
        55,
        1
      ]
    },
    {
      "id": 92,
      "plugin": "cf",
      "version": "1.1.1",
      "model": "METRO",
      "params": [
        {
          "id": 0,
          "value": 58.2434616
        },
        {
          "id": 1,
          "value": 0.0
        },
        {
          "id": 2,
          "value": 0.0
        },
        {
          "id": 3,
          "value": 0.0
        }
      ],
      "data": {
        "onstate": 1
      },
      "pos": [
        17,
        0
      ]
    },
    {
      "id": 93,
      "plugin": "AudibleInstruments",
      "version": "1.0.0",
      "model": "Branches",
      "params": [
        {
          "id": 0,
          "value": 0.498499393
        },
        {
          "id": 1,
          "value": 0.879499972
        },
        {
          "id": 2,
          "value": 0.0
        },
        {
          "id": 3,
          "value": 0.0
        }
      ],
      "data": {
        "modes": [
          false,
          false
        ]
      },
      "pos": [
        32,
        0
      ]
    },
    {
      "id": 94,
      "plugin": "dBiz",
      "version": "1.1.2",
      "model": "TROSC",
      "params": [
        {
          "id": 0,
          "value": 0.0
        },
        {
          "id": 1,
          "value": 0.0
        },
        {
          "id": 2,
          "value": 1.0
        },
        {
          "id": 3,
          "value": 1.0
        },
        {
          "id": 4,
          "value": 1.0
        },
        {
          "id": 5,
          "value": 1.0
        },
        {
          "id": 6,
          "value": 1.0
        },
        {
          "id": 7,
          "value": 1.0
        },
        {
          "id": 8,
          "value": 0.0
        },
        {
          "id": 9,
          "value": 0.0
        },
        {
          "id": 10,
          "value": 0.0
        },
        {
          "id": 11,
          "value": 18.1980019
        },
        {
          "id": 12,
          "value": 0.0
        },
        {
          "id": 13,
          "value": -54.0
        },
        {
          "id": 14,
          "value": 1.0
        },
        {
          "id": 15,
          "value": -17.6580009
        },
        {
          "id": 16,
          "value": 0.0
        },
        {
          "id": 17,
          "value": 0.0
        },
        {
          "id": 18,
          "value": 0.507000029
        },
        {
          "id": 19,
          "value": 0.0
        },
        {
          "id": 20,
          "value": 0.0
        },
        {
          "id": 21,
          "value": 0.983999968
        },
        {
          "id": 22,
          "value": 0.0
        },
        {
          "id": 23,
          "value": 0.0
        },
        {
          "id": 24,
          "value": 0.0
        },
        {
          "id": 25,
          "value": 0.294000059
        },
        {
          "id": 26,
          "value": 0.243000045
        },
        {
          "id": 27,
          "value": 0.0
        },
        {
          "id": 28,
          "value": 0.0
        }
      ],
      "pos": [
        83,
        2
      ]
    },
    {
      "id": 98,
      "plugin": "Core",
      "version": "1.1.6",
      "model": "Notes",
      "params": [],
      "text": "METRO \n58\n\nPLAYER \nstart at 5.67",
      "pos": [
        0,
        0
      ]
    },
    {
      "id": 99,
      "plugin": "dBiz",
      "version": "1.1.2",
      "model": "VCA4",
      "params": [
        {
          "id": 0,
          "value": 1.0
        },
        {
          "id": 1,
          "value": 1.0
        },
        {
          "id": 2,
          "value": 1.0
        },
        {
          "id": 3,
          "value": 0.0
        },
        {
          "id": 4,
          "value": 0.0
        },
        {
          "id": 5,
          "value": 0.0
        },
        {
          "id": 6,
          "value": 0.0
        },
        {
          "id": 7,
          "value": 0.0
        },
        {
          "id": 8,
          "value": 0.0
        },
        {
          "id": 9,
          "value": 0.0
        },
        {
          "id": 10,
          "value": 0.0
        },
        {
          "id": 11,
          "value": 0.0
        },
        {
          "id": 12,
          "value": 0.0
        },
        {
          "id": 13,
          "value": 0.0
        },
        {
          "id": 14,
          "value": 0.0
        },
        {
          "id": 15,
          "value": 0.0
        },
        {
          "id": 16,
          "value": 0.0
        },
        {
          "id": 17,
          "value": 0.0
        },
        {
          "id": 18,
          "value": 0.0
        },
        {
          "id": 19,
          "value": 0.0
        },
        {
          "id": 20,
          "value": 0.0
        },
        {
          "id": 21,
          "value": 0.0
        },
        {
          "id": 22,
          "value": 0.0
        },
        {
          "id": 23,
          "value": 0.0
        },
        {
          "id": 24,
          "value": 0.0
        },
        {
          "id": 25,
          "value": 0.0
        },
        {
          "id": 26,
          "value": 0.0
        },
        {
          "id": 27,
          "value": 0.0
        },
        {
          "id": 28,
          "value": 0.0
        },
        {
          "id": 29,
          "value": 0.0
        },
        {
          "id": 30,
          "value": 0.0
        },
        {
          "id": 31,
          "value": 0.0
        }
      ],
      "rightModuleId": 1,
      "data": {
        "mutes": [
          1,
          1,
          1,
          1,
          1,
          1,
          1,
          1,
          1,
          1,
          1,
          1,
          1,
          1,
          1,
          1
        ]
      },
      "pos": [
        77,
        1
      ]
    },
    {
      "id": 100,
      "plugin": "dBiz",
      "version": "1.1.2",
      "model": "SPan",
      "params": [
        {
          "id": 0,
          "value": 0.0869999677
        },
        {
          "id": 1,
          "value": 0.0
        },
        {
          "id": 2,
          "value": 0.922499955
        },
        {
          "id": 3,
          "value": 1.0
        },
        {
          "id": 4,
          "value": 1.0
        }
      ],
      "pos": [
        66,
        1
      ]
    },
    {
      "id": 101,
      "plugin": "Fundamental",
      "version": "1.4.0",
      "model": "LFO",
      "params": [
        {
          "id": 0,
          "value": 1.0
        },
        {
          "id": 1,
          "value": 1.0
        },
        {
          "id": 2,
          "value": 1.46799445
        },
        {
          "id": 3,
          "value": 1.0
        },
        {
          "id": 4,
          "value": 0.191499904
        },
        {
          "id": 5,
          "value": 0.99000001
        },
        {
          "id": 6,
          "value": 1.0
        }
      ],
      "pos": [
        41,
        2
      ]
    }
  ],
  "cables": [
    {
      "id": 723,
      "outputModuleId": 92,
      "outputId": 3,
      "inputModuleId": 90,
      "inputId": 1,
      "color": "#c91847"
    },
    {
      "id": 724,
      "outputModuleId": 92,
      "outputId": 2,
      "inputModuleId": 90,
      "inputId": 2,
      "color": "#0986ad"
    },
    {
      "id": 727,
      "outputModuleId": 92,
      "outputId": 2,
      "inputModuleId": 93,
      "inputId": 0,
      "color": "#c91847"
    },
    {
      "id": 726,
      "outputModuleId": 93,
      "outputId": 1,
      "inputModuleId": 90,
      "inputId": 18,
      "color": "#0c8e15"
    },
    {
      "id": 733,
      "outputModuleId": 1,
      "outputId": 0,
      "inputModuleId": 78,
      "inputId": 2,
      "color": "#c9b70e"
    },
    {
      "id": 734,
      "outputModuleId": 1,
      "outputId": 1,
      "inputModuleId": 78,
      "inputId": 3,
      "color": "#0c8e15"
    },
    {
      "id": 730,
      "outputModuleId": 90,
      "outputId": 0,
      "inputModuleId": 91,
      "inputId": 0,
      "color": "#0c8e15"
    },
    {
      "id": 735,
      "outputModuleId": 93,
      "outputId": 3,
      "inputModuleId": 91,
      "inputId": 5,
      "color": "#0c8e15"
    },
    {
      "id": 729,
      "outputModuleId": 93,
      "outputId": 0,
      "inputModuleId": 90,
      "inputId": 8,
      "color": "#c9b70e"
    },
    {
      "id": 755,
      "outputModuleId": 99,
      "outputId": 0,
      "inputModuleId": 1,
      "inputId": 0,
      "color": "#0c8e15"
    },
    {
      "id": 756,
      "outputModuleId": 99,
      "outputId": 1,
      "inputModuleId": 1,
      "inputId": 1,
      "color": "#c91847"
    },
    {
      "id": 766,
      "outputModuleId": 91,
      "outputId": 0,
      "inputModuleId": 100,
      "inputId": 8,
      "color": "#0c8e15"
    },
    {
      "id": 763,
      "outputModuleId": 91,
      "outputId": 1,
      "inputModuleId": 100,
      "inputId": 9,
      "color": "#c91847"
    },
    {
      "id": 768,
      "outputModuleId": 100,
      "outputId": 0,
      "inputModuleId": 99,
      "inputId": 0,
      "color": "#c91847"
    },
    {
      "id": 769,
      "outputModuleId": 100,
      "outputId": 1,
      "inputModuleId": 99,
      "inputId": 1,
      "color": "#0986ad"
    },
    {
      "id": 779,
      "outputModuleId": 84,
      "outputId": 0,
      "inputModuleId": 100,
      "inputId": 10,
      "color": "#0986ad"
    },
    {
      "id": 777,
      "outputModuleId": 101,
      "outputId": 1,
      "inputModuleId": 84,
      "inputId": 0,
      "color": "#0986ad"
    },
    {
      "id": 770,
      "outputModuleId": 89,
      "outputId": 1,
      "inputModuleId": 101,
      "inputId": 0,
      "color": "#0c8e15"
    },
    {
      "id": 781,
      "outputModuleId": 94,
      "outputId": 1,
      "inputModuleId": 84,
      "inputId": 2,
      "color": "#0986ad"
    },
    {
      "id": 780,
      "outputModuleId": 101,
      "outputId": 0,
      "inputModuleId": 94,
      "inputId": 1,
      "color": "#c91847"
    }
  ]
}